<?xml version="1.0" encoding="utf-8"?>
<!-- Generator: Adobe Illustrator 15.0.0, SVG Export Plug-In . SVG Version: 6.00 Build 0)  -->
<!DOCTYPE svg PUBLIC "-//W3C//DTD SVG 1.1//EN" "http://www.w3.org/Graphics/SVG/1.1/DTD/svg11.dtd">
<svg version="1.1"
	 id="svg4423" xmlns:dc="http://purl.org/dc/elements/1.1/" xmlns:cc="http://creativecommons.org/ns#" xmlns:rdf="http://www.w3.org/1999/02/22-rdf-syntax-ns#" xmlns:svg="http://www.w3.org/2000/svg" xmlns:sodipodi="http://sodipodi.sourceforge.net/DTD/sodipodi-0.dtd" xmlns:inkscape="http://www.inkscape.org/namespaces/inkscape" sodipodi:docname="2H.svg" inkscape:version="0.48.1 r9760"
	 xmlns="http://www.w3.org/2000/svg" xmlns:xlink="http://www.w3.org/1999/xlink" x="0px" y="0px" width="223.229px"
	 height="311.811px" viewBox="0 0 223.229 311.811" enable-background="new 0 0 223.229 311.811" xml:space="preserve">
<sodipodi:namedview  id="base" showgrid="false" inkscape:cy="492.08587" inkscape:cx="248.48484" inkscape:zoom="0.98994948" borderopacity="1.0" bordercolor="#666666" pagecolor="#ffffff" inkscape:window-y="42" inkscape:window-x="935" inkscape:window-height="925" inkscape:window-width="690" inkscape:snap-page="true" inkscape:snap-bbox="true" inkscape:snap-global="true" inkscape:current-layer="layer1" inkscape:document-units="px" inkscape:pageshadow="2" inkscape:pageopacity="0.0" inkscape:window-maximized="0">
	</sodipodi:namedview>
<g id="layer1" inkscape:label="2H" inkscape:groupmode="layer">
	<g id="g8900" transform="translate(-1313.6208,198.14981)">
		<g id="g8879" transform="translate(-4683.8753,2918.9368)">
			<path id="rect6347" fill="#FFFFFF" stroke="#000000" stroke-width="0.9967" d="M6008.127-3117.086h201.969
				c5.871,0,10.629,4.759,10.629,10.63v290.551c0,5.871-4.758,10.63-10.629,10.63h-201.969c-5.871,0-10.63-4.759-10.63-10.63
				v-290.551C5997.497-3112.328,6002.256-3117.086,6008.127-3117.086z"/>
		</g>
		<g id="g6564" transform="translate(-0.13622252,4.5315816e-5)">
			<path id="path8628" sodipodi:nodetypes="cccccccc" inkscape:connector-curvature="0" fill="#D40000" d="M1322.836-137.918
				c-1.583-3.474-1.757-9.405,2.972-10.208c3.562-0.458,5.012,1.197,5.3,3.74c0.142,0.743,0.562,0.789,0.695-0.058
				c0.204-2.608,2.786-4.133,4.807-3.75c5.526,0.945,5.204,7.028,3.397,11.155c-2.73,5.479-5.601,8.938-8.244,14.451
				C1328.725-128.326,1325.254-132.991,1322.836-137.918L1322.836-137.918z"/>
			<g id="g6555">
				<path id="path8650" sodipodi:nodetypes="cccccccc" inkscape:connector-curvature="0" fill="#D40000" d="M1510.561,53.353
					c-1.584,3.473-1.759,9.405,2.971,10.208c3.563,0.458,5.012-1.198,5.301-3.742c0.141-0.743,0.562-0.788,0.693,0.06
					c0.205,2.608,2.787,4.133,4.807,3.75c5.527-0.945,5.205-7.028,3.398-11.155c-2.73-5.479-5.601-8.938-8.244-14.452
					C1516.447,43.761,1512.979,48.426,1510.561,53.353L1510.561,53.353z"/>
				<g id="g6548">
					<g id="g8574" transform="matrix(0.30106207,0,0,0.30106207,995.9849,969.13578)">
						<path id="path7100" sodipodi:nodetypes="csscscccsccccccc" inkscape:connector-curvature="0" fill="#D40000" d="
							M1082.653-3722.323l0.548-6.705c1.693-20.724,6.225-27.724,31.96-49.344c12.488-10.49,16.589-15.667,17.166-21.678
							c1.628-14.149-11.132-18.57-19.449-18.645c-10.769-0.1-22.949,6.348-17.143,21.305l-12.08,3.545
							c-2.439-13.951,0.058-27.043,11.376-32.859c15.103-7.571,34.481-4.6,44.257,7.331c6.569,8.018,8.064,19.086,4.545,27.753
							c-10.299,22.161-45.244,31.909-48.134,57.528h38.633v-14.266h11.379v26.264L1082.653-3722.323z"/>
						<path id="path7116" sodipodi:nodetypes="csscscccsccccccc" inkscape:connector-curvature="0" fill="#D40000" d="
							M1768.919-2996.432l-0.545,6.705c-1.693,20.724-6.228,27.724-31.964,49.344c-12.488,10.49-16.588,15.67-17.166,21.678
							c-1.628,14.149,11.132,18.57,19.449,18.645c10.769,0.101,22.953-6.348,17.14-21.302l12.08-3.549
							c2.439,13.948-0.052,27.043-11.379,32.859c-15.096,7.571-34.474,4.6-44.251-7.331c-6.572-8.022-8.064-19.086-4.541-27.753
							c10.296-22.161,45.244-31.908,48.13-57.528h-38.633v14.266h-11.379v-26.265L1768.919-2996.432z"/>
					</g>
					<path id="path8514" sodipodi:nodetypes="ccccsccssc" inkscape:connector-curvature="0" fill="#D40000" d="M1413.285-170.185
						c7.145-0.475,10.869,5.627,11.596,10.438c0.435,0.764,0.671,0.548,0.837-0.043c0.349-6.174,5.875-11.22,10.993-10.53
						c8.328,0.108,13.39,9.376,11.967,17.219c-1.737,9.582-6.899,15.353-10.809,21.293c-4.422,6.152-10.373,15.04-12.29,19.317
						c0,0-6.049-9.205-13.917-20.03c-5.263-7.238-9.474-15.082-9.865-21.835C1401.35-162.072,1404.516-168.989,1413.285-170.185
						L1413.285-170.185z"/>
					<path id="path8580" sodipodi:nodetypes="ccccsccssc" inkscape:connector-curvature="0" fill="#D40000" d="M1413.285,86.116
						c7.145,0.476,10.869-5.627,11.596-10.437c0.435-0.764,0.671-0.549,0.837,0.042c0.349,6.175,5.875,11.221,10.993,10.53
						c8.328-0.107,13.39-9.375,11.967-17.22c-1.737-9.581-6.899-15.351-10.809-21.293c-4.422-6.151-10.373-15.039-12.29-19.315
						c0,0-6.049,9.204-13.917,20.028c-5.263,7.238-9.474,15.082-9.865,21.836C1401.35,78.005,1404.516,84.921,1413.285,86.116
						L1413.285,86.116z"/>
				</g>
			</g>
		</g>
	</g>
</g>
</svg>
