<?xml version="1.0" encoding="utf-8"?>
<!-- Generator: Adobe Illustrator 15.0.0, SVG Export Plug-In . SVG Version: 6.00 Build 0)  -->
<!DOCTYPE svg PUBLIC "-//W3C//DTD SVG 1.1//EN" "http://www.w3.org/Graphics/SVG/1.1/DTD/svg11.dtd">
<svg version="1.1"
	 id="svg4423" xmlns:dc="http://purl.org/dc/elements/1.1/" xmlns:cc="http://creativecommons.org/ns#" xmlns:rdf="http://www.w3.org/1999/02/22-rdf-syntax-ns#" xmlns:svg="http://www.w3.org/2000/svg" xmlns:sodipodi="http://sodipodi.sourceforge.net/DTD/sodipodi-0.dtd" xmlns:inkscape="http://www.inkscape.org/namespaces/inkscape" sodipodi:docname="3H.svg" inkscape:version="0.48.1 r9760"
	 xmlns="http://www.w3.org/2000/svg" xmlns:xlink="http://www.w3.org/1999/xlink" x="0px" y="0px" width="223.229px"
	 height="311.811px" viewBox="0 0 223.229 311.811" enable-background="new 0 0 223.229 311.811" xml:space="preserve">
<sodipodi:namedview  id="base" showgrid="false" inkscape:cy="436.29345" inkscape:cx="190.96525" inkscape:zoom="0.98994948" borderopacity="1.0" bordercolor="#666666" pagecolor="#ffffff" inkscape:window-y="117" inkscape:window-x="1078" inkscape:window-height="925" inkscape:window-width="735" inkscape:snap-page="true" inkscape:snap-bbox="true" inkscape:snap-global="true" inkscape:current-layer="layer1" inkscape:document-units="px" inkscape:pageshadow="2" inkscape:pageopacity="0.0" inkscape:window-maximized="0">
	</sodipodi:namedview>
<g id="layer1" inkscape:label="3H" inkscape:groupmode="layer" sodipodi:insensitive="true">
	<g id="g8912" transform="translate(-1536.8493,198.14981)">
		<g id="g8784">
			<g id="g8890" transform="translate(-4683.8753,2918.9368)">
				<path id="rect6351" fill="#FFFFFF" stroke="#000000" stroke-width="0.9967" d="M6231.355-3117.086h201.968
					c5.871,0,10.629,4.759,10.629,10.63v290.551c0,5.871-4.758,10.63-10.629,10.63h-201.968c-5.871,0-10.63-4.759-10.63-10.63
					v-290.551C6220.725-3112.328,6225.484-3117.086,6231.355-3117.086z"/>
				<g id="g8582" transform="matrix(0.30106207,0,0,0.30106207,5635.595,-1948.9541)">
					<path id="path7102" sodipodi:nodetypes="ccccscccccccccccscc" inkscape:connector-curvature="0" fill="#D40000" d="
						M1971.618-3749.791l8.463-6.111c7.354,11.739,15.563,19.472,28.117,18.145c18.843-1.268,26.65-20.662,22.706-35.285
						c-3.811-13.105-19.417-19.495-31.818-12.498c-2.923,1.648-6.302,3.688-6.302,3.688l-4.415-7.195l29.109-33.864h-31.591v14.016
						h-12.122v-25.129h61.748v8.531c0,0-16.54,16.835-22.015,26.066c13.471,0.49,24.325,8.862,28.211,22.116
						c2.277,6.968,1.252,22.92-1.719,29.787c-4.96,11.463-18.548,20.76-30.961,21.295c-20.828,1.375-31.892-12.959-37.407-23.563
						H1971.618L1971.618-3749.791z"/>
					<path id="path7118" sodipodi:nodetypes="ccccscccccccccccscc" inkscape:connector-curvature="0" fill="#D40000" d="
						M2656.96-2974.592l-8.466,6.111c-7.35-11.736-15.557-19.472-28.117-18.142c-18.846,1.268-26.65,20.659-22.699,35.285
						c3.808,13.101,19.417,19.495,31.814,12.498c2.919-1.651,6.306-3.377,6.306-3.377l5.222,6.757l-29.92,33.991h31.587v-14.016
						h12.125v25.126h-61.748v-8.528c0,0,16.537-16.838,22.012-26.067c-13.468-0.49-24.321-8.865-28.207-22.116
						c-2.277-6.971-1.252-22.923,1.719-29.787c4.957-11.463,18.548-20.76,30.958-21.298
						C2640.378-2999.53,2651.44-2985.193,2656.96-2974.592L2656.96-2974.592z"/>
				</g>
			</g>
		</g>
		<path id="path8630" sodipodi:nodetypes="cccccccc" inkscape:connector-curvature="0" fill="#D40000" d="M1546.592-137.486
			c-1.583-3.474-1.757-9.405,2.971-10.208c3.563-0.458,5.013,1.198,5.301,3.742c0.142,0.742,0.562,0.788,0.694-0.06
			c0.205-2.608,2.787-4.133,4.808-3.75c5.525,0.945,5.204,7.028,3.397,11.155c-2.73,5.479-5.601,8.938-8.245,14.452
			C1552.479-127.894,1549.01-132.558,1546.592-137.486L1546.592-137.486z"/>
		<path id="path8516" sodipodi:nodetypes="ccccsccssc" inkscape:connector-curvature="0" fill="#D40000" d="M1636.351-169.412
			c7.145-0.476,10.868,5.627,11.596,10.436c0.434,0.766,0.671,0.549,0.837-0.042c0.348-6.174,5.875-11.22,10.991-10.529
			c8.328,0.107,13.393,9.376,11.969,17.219c-1.738,9.582-6.898,15.352-10.809,21.293c-4.422,6.151-10.373,15.04-12.291,19.316
			c0,0-6.049-9.205-13.917-20.03c-5.263-7.237-9.474-15.081-9.864-21.834C1624.413-161.302,1627.58-168.218,1636.351-169.412
			L1636.351-169.412z"/>
		<path id="path8518" sodipodi:nodetypes="ccccsccssc" inkscape:connector-curvature="0" fill="#D40000" d="M1636.413-70.991
			c7.145-0.475,10.869,5.628,11.596,10.437c0.434,0.765,0.671,0.549,0.837-0.042c0.35-6.174,5.875-11.221,10.993-10.53
			c8.328,0.108,13.389,9.375,11.967,17.22c-1.738,9.582-6.9,15.352-10.809,21.293c-4.422,6.151-10.373,15.04-12.29,19.316
			c0,0-6.049-9.205-13.917-20.029c-5.262-7.238-9.475-15.082-9.865-21.835C1624.477-62.88,1627.644-69.796,1636.413-70.991
			L1636.413-70.991z"/>
		<path id="path8652" sodipodi:nodetypes="cccccccc" inkscape:connector-curvature="0" fill="#D40000" d="M1733.579,53.726
			c-1.582,3.473-1.756,9.405,2.971,10.208c3.563,0.459,5.012-1.198,5.301-3.742c0.143-0.742,0.563-0.788,0.695,0.06
			c0.203,2.608,2.787,4.133,4.805,3.75c5.527-0.945,5.205-7.028,3.398-11.155c-2.73-5.479-5.6-8.938-8.244-14.452
			C1739.465,44.135,1735.997,48.799,1733.579,53.726L1733.579,53.726z"/>
		<path id="path8582" sodipodi:nodetypes="ccccsccssc" inkscape:connector-curvature="0" fill="#D40000" d="M1636.351,85.183
			c7.145,0.475,10.868-5.627,11.596-10.438c0.434-0.764,0.671-0.549,0.837,0.042c0.348,6.176,5.875,11.222,10.991,10.53
			c8.328-0.107,13.393-9.375,11.969-17.219c-1.738-9.581-6.898-15.352-10.809-21.293c-4.422-6.152-10.373-15.039-12.291-19.316
			c0,0-6.049,9.204-13.917,20.029c-5.263,7.238-9.474,15.082-9.864,21.835C1624.413,77.07,1627.58,83.986,1636.351,85.183
			L1636.351,85.183z"/>
	</g>
</g>
</svg>
