<?xml version="1.0" encoding="utf-8"?>
<!-- Generator: Adobe Illustrator 15.0.0, SVG Export Plug-In . SVG Version: 6.00 Build 0)  -->
<!DOCTYPE svg PUBLIC "-//W3C//DTD SVG 1.1//EN" "http://www.w3.org/Graphics/SVG/1.1/DTD/svg11.dtd">
<svg version="1.1"
	 id="svg4423" xmlns:dc="http://purl.org/dc/elements/1.1/" xmlns:cc="http://creativecommons.org/ns#" xmlns:rdf="http://www.w3.org/1999/02/22-rdf-syntax-ns#" xmlns:svg="http://www.w3.org/2000/svg" xmlns:sodipodi="http://sodipodi.sourceforge.net/DTD/sodipodi-0.dtd" xmlns:inkscape="http://www.inkscape.org/namespaces/inkscape" sodipodi:docname="4H.svg" inkscape:version="0.48.1 r9760"
	 xmlns="http://www.w3.org/2000/svg" xmlns:xlink="http://www.w3.org/1999/xlink" x="0px" y="0px" width="223.229px"
	 height="311.811px" viewBox="0 0 223.229 311.811" enable-background="new 0 0 223.229 311.811" xml:space="preserve">
<sodipodi:namedview  id="base" showgrid="false" inkscape:cy="483.12663" inkscape:cx="249.10806" inkscape:zoom="0.98994948" borderopacity="1.0" bordercolor="#666666" pagecolor="#ffffff" inkscape:window-y="44" inkscape:window-x="577" inkscape:window-height="925" inkscape:window-width="735" inkscape:snap-page="true" inkscape:snap-bbox="true" inkscape:snap-global="true" inkscape:current-layer="layer1" inkscape:document-units="px" inkscape:pageshadow="2" inkscape:pageopacity="0.0" inkscape:window-maximized="0">
	</sodipodi:namedview>
<g id="layer1" inkscape:label="4H" inkscape:groupmode="layer">
	<g id="g8925" transform="translate(-1760.0774,198.14981)">
		<g id="g8796">
			<g id="g8902" transform="translate(-4683.8753,2918.9368)">
				<path id="rect6353" fill="#FFFFFF" stroke="#000000" stroke-width="0.9967" d="M6454.583-3117.086h201.968
					c5.869,0,10.629,4.759,10.629,10.63v290.551c0,5.871-4.76,10.63-10.629,10.63h-201.968c-5.871,0-10.63-4.759-10.63-10.63
					v-290.551C6443.952-3112.328,6448.713-3117.086,6454.583-3117.086z"/>
				<g id="g8591" transform="matrix(0.30106207,0,0,0.30106207,5623.2929,-1949.6699)">
					<path id="path7104" sodipodi:nodetypes="cccccccccccccccccccc" inkscape:connector-curvature="0" fill="#D40000" d="
						M2785.132-3723.634v-9.342h8.583v-15.398h-42.931v-10.863l46.453-70.084l7.59,0.026v70.055h13.134v10.863h-13.134
						l-0.253,15.401h7.198v9.342H2785.132L2785.132-3723.634z M2793.715-3803.672l-29.492,44.436h29.492V-3803.672z"/>
					<path id="path7159" sodipodi:nodetypes="cccccccccccccccccccc" inkscape:connector-curvature="0" fill="#D40000" d="
						M3408.114-2995.998v9.345h-8.589v15.398h42.934v10.866l-46.45,70.078l-7.59-0.026v-70.052h-13.131v-10.866h13.131l0.253-15.398
						h-7.195v-9.345H3408.114z M3399.524-2915.956l29.499-44.433h-29.499V-2915.956z"/>
				</g>
			</g>
		</g>
		<path id="path8638" sodipodi:nodetypes="cccccccc" inkscape:connector-curvature="0" fill="#D40000" d="M1768.835-137.156
			c-1.583-3.473-1.756-9.405,2.972-10.207c3.562-0.459,5.012,1.196,5.3,3.741c0.143,0.742,0.562,0.787,0.694-0.06
			c0.205-2.608,2.788-4.132,4.808-3.749c5.525,0.944,5.204,7.027,3.397,11.155c-2.73,5.479-5.601,8.938-8.245,14.451
			C1774.723-127.563,1771.253-132.228,1768.835-137.156L1768.835-137.156z"/>
		<path id="path8520" sodipodi:nodetypes="ccccsccssc" inkscape:connector-curvature="0" fill="#D40000" d="M1805.076-172.085
			c7.145-0.476,10.868,5.627,11.595,10.437c0.435,0.764,0.671,0.548,0.837-0.043c0.351-6.174,5.875-11.22,10.993-10.53
			c8.327,0.108,13.39,9.376,11.966,17.22c-1.738,9.581-6.898,15.352-10.808,21.292c-4.421,6.152-10.373,15.04-12.29,19.317
			c0,0-6.049-9.205-13.917-20.029c-5.263-7.238-9.475-15.082-9.865-21.835C1793.14-163.974,1796.307-170.891,1805.076-172.085
			L1805.076-172.085z"/>
		<path id="path8522" sodipodi:nodetypes="ccccsccssc" inkscape:connector-curvature="0" fill="#D40000" d="M1914.61-172.085
			c7.145-0.476,10.867,5.627,11.596,10.437c0.432,0.764,0.67,0.548,0.836-0.043c0.35-6.174,5.875-11.22,10.992-10.53
			c8.328,0.108,13.391,9.376,11.967,17.22c-1.738,9.581-6.9,15.352-10.809,21.292c-4.42,6.152-10.371,15.04-12.289,19.317
			c0,0-6.051-9.205-13.918-20.029c-5.264-7.238-9.475-15.082-9.865-21.835C1902.672-163.974,1905.838-170.891,1914.61-172.085
			L1914.61-172.085z"/>
		<path id="path8584" sodipodi:nodetypes="ccccsccssc" inkscape:connector-curvature="0" fill="#D40000" d="M1805.076,84.255
			c7.145,0.475,10.868-5.627,11.595-10.438c0.435-0.764,0.671-0.549,0.837,0.042c0.351,6.175,5.875,11.221,10.993,10.53
			c8.327-0.108,13.39-9.375,11.966-17.219c-1.738-9.581-6.898-15.352-10.808-21.293c-4.421-6.152-10.373-15.039-12.29-19.316
			c0,0-6.049,9.204-13.917,20.029c-5.263,7.237-9.475,15.082-9.865,21.835C1793.14,76.142,1796.307,83.058,1805.076,84.255
			L1805.076,84.255z"/>
		<path id="path8586" sodipodi:nodetypes="ccccsccssc" inkscape:connector-curvature="0" fill="#D40000" d="M1914.61,84.255
			c7.145,0.475,10.867-5.627,11.596-10.438c0.432-0.764,0.67-0.549,0.836,0.042c0.35,6.175,5.875,11.221,10.992,10.53
			c8.328-0.108,13.391-9.375,11.967-17.219c-1.738-9.581-6.9-15.352-10.809-21.293c-4.42-6.152-10.371-15.039-12.289-19.316
			c0,0-6.051,9.204-13.918,20.029c-5.264,7.237-9.475,15.082-9.865,21.835C1902.672,76.142,1905.838,83.058,1914.61,84.255
			L1914.61,84.255z"/>
		<path id="path8654" sodipodi:nodetypes="cccccccc" inkscape:connector-curvature="0" fill="#D40000" d="M1956.051,52.957
			c-1.582,3.473-1.756,9.405,2.975,10.208c3.561,0.458,5.012-1.197,5.299-3.741c0.143-0.743,0.563-0.788,0.695,0.059
			c0.205,2.609,2.787,4.132,4.807,3.75c5.523-0.945,5.203-7.029,3.396-11.156c-2.729-5.479-5.602-8.938-8.246-14.451
			C1961.942,43.364,1958.473,48.028,1956.051,52.957L1956.051,52.957z"/>
	</g>
</g>
</svg>
