<?xml version="1.0" encoding="utf-8"?>
<!-- Generator: Adobe Illustrator 15.0.0, SVG Export Plug-In . SVG Version: 6.00 Build 0)  -->
<!DOCTYPE svg PUBLIC "-//W3C//DTD SVG 1.1//EN" "http://www.w3.org/Graphics/SVG/1.1/DTD/svg11.dtd">
<svg version="1.1"
	 id="svg4423" xmlns:dc="http://purl.org/dc/elements/1.1/" xmlns:cc="http://creativecommons.org/ns#" xmlns:rdf="http://www.w3.org/1999/02/22-rdf-syntax-ns#" xmlns:svg="http://www.w3.org/2000/svg" xmlns:sodipodi="http://sodipodi.sourceforge.net/DTD/sodipodi-0.dtd" xmlns:inkscape="http://www.inkscape.org/namespaces/inkscape" sodipodi:docname="6H.svg" inkscape:version="0.48.1 r9760"
	 xmlns="http://www.w3.org/2000/svg" xmlns:xlink="http://www.w3.org/1999/xlink" x="0px" y="0px" width="223.229px"
	 height="311.811px" viewBox="0 0 223.229 311.811" enable-background="new 0 0 223.229 311.811" xml:space="preserve">
<sodipodi:namedview  id="base" showgrid="false" inkscape:cy="601.70801" inkscape:cx="40.510903" inkscape:zoom="0.49497474" borderopacity="1.0" bordercolor="#666666" pagecolor="#ffffff" inkscape:window-y="41" inkscape:window-x="1105" inkscape:window-height="925" inkscape:window-width="735" inkscape:snap-page="true" inkscape:snap-bbox="true" inkscape:snap-global="true" inkscape:current-layer="layer1" inkscape:document-units="px" inkscape:pageshadow="2" inkscape:pageopacity="0.0" inkscape:window-maximized="0">
	</sodipodi:namedview>
<g id="layer1" inkscape:label="6h" inkscape:groupmode="layer">
	<g id="g8954" transform="translate(-2206.5344,198.14981)">
		<g id="g8823">
			<g id="g8929" transform="translate(-4683.8753,2918.9368)">
				<path id="rect6357" fill="#FFFFFF" stroke="#000000" stroke-width="0.9967" d="M6901.04-3117.086h201.968
					c5.869,0,10.629,4.759,10.629,10.63v290.551c0,5.871-4.76,10.63-10.629,10.63H6901.04c-5.871,0-10.63-4.759-10.63-10.63
					v-290.551C6890.409-3112.328,6895.17-3117.086,6901.04-3117.086z"/>
				<g id="g8673" transform="matrix(0.30106207,0,0,0.30106207,6829.277,-2295.2794)">
					<path id="path7108" sodipodi:nodetypes="cssccacccccszsss" inkscape:connector-curvature="0" fill="#D40000" d="
						M230.426-2610.117c-1.359-9.128-1.333-32.7-0.217-39.668c3.416-21.353,11.729-31.117,25.651-34.319
						c13.51-3.111,32.512,0.35,36.68,18.207l-11.314,0.211c-6.111-12.07-21.574-8.842-30.277-3.594
						c-6.951,4.191-10.094,21.655-8.748,22.729c-0.01,0,13.144-9.556,23.501-8.852c22.151,2.264,31.283,21.113,30.51,38.925
						c-0.701,21.425-7.626,38.539-31.094,39.681C242.804-2577.638,232.566-2589.584,230.426-2610.117z M285.465-2615.781
						c0.123-14.863-6.753-25.982-19.761-27.212c-13.007-1.226-26.118,11.233-25.21,26.381c0.911,15.2,6.903,28.01,22.674,27.935
						C280.126-2588.751,285.378-2605.206,285.465-2615.781L285.465-2615.781z"/>
					<path id="path7161" sodipodi:nodetypes="cssccacccccszsss" inkscape:connector-curvature="0" fill="#D40000" d="
						M917.153-1813.572c1.356,9.128,1.336,32.7,0.221,39.671c-3.419,21.35-11.729,31.117-25.651,34.319
						c-13.513,3.108-32.515-0.35-36.68-18.207l11.314-0.211c6.111,12.07,21.571,8.842,30.277,3.594
						c6.955-4.191,10.094-21.655,8.752-22.729c0.006,0-13.144,9.556-23.504,8.852c-22.148-2.264-31.282-21.113-30.51-38.928
						c0.707-21.425,7.623-38.539,31.094-39.681C904.782-1846.048,915.012-1834.104,917.153-1813.572L917.153-1813.572z
						 M862.114-1807.905c-0.123,14.863,6.753,25.982,19.761,27.212c13.007,1.226,26.118-11.233,25.217-26.385
						c-0.915-15.2-6.909-28.006-22.68-27.935C867.453-1834.935,862.204-1818.483,862.114-1807.905L862.114-1807.905z"/>
				</g>
			</g>
		</g>
		<path id="path8642" sodipodi:nodetypes="cccccccc" inkscape:connector-curvature="0" fill="#D40000" d="M2215.186-138.776
			c-1.583-3.473-1.757-9.405,2.971-10.208c3.562-0.459,5.012,1.198,5.3,3.741c0.143,0.742,0.563,0.789,0.695-0.06
			c0.205-2.607,2.787-4.132,4.806-3.749c5.527,0.945,5.204,7.028,3.398,11.155c-2.73,5.479-5.602,8.938-8.245,14.451
			C2221.073-129.184,2217.604-133.849,2215.186-138.776L2215.186-138.776z"/>
		<path id="path8530" sodipodi:nodetypes="ccccsccssc" inkscape:connector-curvature="0" fill="#D40000" d="M2250.472-169.787
			c7.146-0.475,10.868,5.628,11.597,10.437c0.433,0.766,0.671,0.549,0.837-0.042c0.35-6.174,5.875-11.22,10.992-10.529
			c8.327,0.107,13.39,9.376,11.967,17.219c-1.738,9.582-6.9,15.351-10.81,21.293c-4.421,6.151-10.372,15.04-12.289,19.316
			c0,0-6.049-9.205-13.918-20.029c-5.262-7.238-9.473-15.082-9.864-21.835C2238.537-161.675,2241.704-168.591,2250.472-169.787
			L2250.472-169.787z"/>
		<path id="path8532" sodipodi:nodetypes="ccccsccssc" inkscape:connector-curvature="0" fill="#D40000" d="M2362.006-169.787
			c7.145-0.475,10.867,5.628,11.596,10.437c0.434,0.766,0.672,0.549,0.838-0.042c0.35-6.174,5.875-11.22,10.99-10.529
			c8.328,0.107,13.393,9.376,11.969,17.219c-1.738,9.582-6.9,15.351-10.811,21.293c-4.42,6.151-10.373,15.04-12.289,19.316
			c0,0-6.049-9.205-13.918-20.029c-5.262-7.238-9.473-15.082-9.865-21.835C2350.068-161.675,2353.236-168.591,2362.006-169.787
			L2362.006-169.787z"/>
		<path id="path8534" sodipodi:nodetypes="ccccsccssc" inkscape:connector-curvature="0" fill="#D40000" d="M2362.006-70.894
			c7.145-0.474,10.867,5.628,11.596,10.438c0.434,0.765,0.672,0.549,0.838-0.042c0.35-6.175,5.875-11.221,10.99-10.53
			c8.328,0.107,13.393,9.375,11.969,17.219c-1.738,9.582-6.9,15.353-10.811,21.293c-4.42,6.152-10.373,15.04-12.289,19.317
			c0,0-6.049-9.205-13.918-20.03c-5.262-7.238-9.473-15.082-9.865-21.835C2350.068-62.781,2353.236-69.698,2362.006-70.894
			L2362.006-70.894z"/>
		<path id="path8536" sodipodi:nodetypes="ccccsccssc" inkscape:connector-curvature="0" fill="#D40000" d="M2250.472-70.894
			c7.146-0.474,10.868,5.628,11.597,10.438c0.433,0.765,0.671,0.549,0.837-0.042c0.35-6.175,5.875-11.221,10.992-10.53
			c8.327,0.107,13.39,9.375,11.967,17.219c-1.738,9.582-6.9,15.353-10.81,21.293c-4.421,6.152-10.372,15.04-12.289,19.317
			c0,0-6.049-9.205-13.918-20.03c-5.262-7.238-9.473-15.082-9.864-21.835C2238.537-62.781,2241.704-69.698,2250.472-70.894
			L2250.472-70.894z"/>
		<path id="path8592" sodipodi:nodetypes="ccccsccssc" inkscape:connector-curvature="0" fill="#D40000" d="M2250.472,85.198
			c7.146,0.475,10.868-5.628,11.597-10.437c0.433-0.766,0.671-0.549,0.837,0.042c0.35,6.174,5.875,11.22,10.992,10.529
			c8.327-0.107,13.39-9.376,11.967-17.219c-1.738-9.582-6.9-15.352-10.81-21.293c-4.421-6.151-10.372-15.04-12.289-19.316
			c0,0-6.049,9.204-13.918,20.029c-5.262,7.238-9.473,15.082-9.864,21.835C2238.537,77.087,2241.704,84.003,2250.472,85.198
			L2250.472,85.198z"/>
		<path id="path8594" sodipodi:nodetypes="ccccsccssc" inkscape:connector-curvature="0" fill="#D40000" d="M2362.006,85.198
			c7.145,0.475,10.867-5.628,11.596-10.437c0.434-0.766,0.672-0.549,0.838,0.042c0.35,6.174,5.875,11.22,10.99,10.529
			c8.328-0.107,13.393-9.376,11.969-17.219c-1.738-9.582-6.9-15.352-10.811-21.293c-4.42-6.151-10.373-15.04-12.289-19.316
			c0,0-6.049,9.204-13.918,20.029c-5.262,7.238-9.473,15.082-9.865,21.835C2350.068,77.087,2353.236,84.003,2362.006,85.198
			L2362.006,85.198z"/>
		<path id="path8658" sodipodi:nodetypes="cccccccc" inkscape:connector-curvature="0" fill="#D40000" d="M2404,52.081
			c-1.584,3.473-1.758,9.405,2.973,10.208c3.563,0.458,5.012-1.197,5.301-3.741c0.141-0.743,0.561-0.788,0.693,0.059
			c0.205,2.609,2.787,4.133,4.807,3.75c5.527-0.945,5.205-7.028,3.396-11.155c-2.729-5.479-5.6-8.938-8.242-14.452
			C2409.889,42.489,2406.418,47.153,2404,52.081L2404,52.081z"/>
	</g>
</g>
</svg>
