<?xml version="1.0" encoding="utf-8"?>
<!-- Generator: Adobe Illustrator 15.0.0, SVG Export Plug-In . SVG Version: 6.00 Build 0)  -->
<!DOCTYPE svg PUBLIC "-//W3C//DTD SVG 1.1//EN" "http://www.w3.org/Graphics/SVG/1.1/DTD/svg11.dtd">
<svg version="1.1"
	 id="svg4423" xmlns:dc="http://purl.org/dc/elements/1.1/" xmlns:cc="http://creativecommons.org/ns#" xmlns:rdf="http://www.w3.org/1999/02/22-rdf-syntax-ns#" xmlns:svg="http://www.w3.org/2000/svg" xmlns:sodipodi="http://sodipodi.sourceforge.net/DTD/sodipodi-0.dtd" xmlns:inkscape="http://www.inkscape.org/namespaces/inkscape" sodipodi:docname="8H.svg" inkscape:version="0.48.1 r9760"
	 xmlns="http://www.w3.org/2000/svg" xmlns:xlink="http://www.w3.org/1999/xlink" x="0px" y="0px" width="223.229px"
	 height="311.811px" viewBox="0 0 223.229 311.811" enable-background="new 0 0 223.229 311.811" xml:space="preserve">
<sodipodi:namedview  id="base" showgrid="false" inkscape:cy="375.39925" inkscape:cx="187.31121" inkscape:zoom="0.98994948" borderopacity="1.0" bordercolor="#666666" pagecolor="#ffffff" inkscape:window-y="66" inkscape:window-x="803" inkscape:window-height="925" inkscape:window-width="735" inkscape:snap-page="true" inkscape:snap-bbox="true" inkscape:snap-global="true" inkscape:current-layer="layer1" inkscape:document-units="px" inkscape:pageshadow="2" inkscape:pageopacity="0.0" inkscape:window-maximized="0">
	</sodipodi:namedview>
<g id="layer1" inkscape:label="8H" inkscape:groupmode="layer">
	<g id="g9013" transform="translate(-1313.6208,-113.66123)">
		<g id="g8854">
			<g id="g8836" transform="translate(-4683.8753,2918.9368)">
				<path id="rect6361" fill="#FFFFFF" stroke="#000000" stroke-width="0.9967" d="M6008.126-2805.275h201.968
					c5.871,0,10.629,4.759,10.629,10.63v290.551c0,5.871-4.758,10.63-10.629,10.63h-201.968c-5.871,0-10.63-4.759-10.63-10.63
					v-290.551C5997.497-2800.517,6002.255-2805.275,6008.126-2805.275z"/>
				<g id="g8646" transform="matrix(0.30106207,0,0,0.30106207,5370.0941,-1979.9322)">
					<path id="path7112" sodipodi:nodetypes="zcszsczzzssssssssss" inkscape:connector-curvature="0" fill="#D40000" d="
						M2106.693-2616.715c0.532-14.532,5.884-19.988,16.423-27.598c-8.408-5.965-11.95-14.736-11.236-22.213
						c1.732-18.094,15.979-27.147,31.506-26.751c15.528,0.396,28.915,12.501,29.956,25.648c0.908,11.437-2.559,16.945-10.818,22.972
						c9.809,8.109,16.076,13.452,15.839,27.766c-0.237,14.318-12.641,31.357-34.26,31.876c-21.62,0.522-37.939-17.169-37.407-31.704
						h-0.003V-2616.715z M2167.058-2616.666c0.928-13.16-10.925-22.038-24.292-22.177c-13.03-0.133-24.685,10.785-24.685,22.599
						c0,12.693,15.158,19.586,24.948,19.625C2154.927-2596.578,2166.257-2605.329,2167.058-2616.666L2167.058-2616.666z
						 M2162.777-2663.742c0.26-11.087-10.153-19.031-20.886-18.713c-9.553,0.285-19.667,7.444-19.673,16.712
						c-0.01,11.593,11.502,17.38,21.314,17.597C2152.436-2647.949,2162.582-2655.37,2162.777-2663.742z"/>
					<path id="path7128" sodipodi:nodetypes="zcszsczzzssssssssss" inkscape:connector-curvature="0" fill="#D40000" d="
						M2802.697-1830.462c-0.532,14.532-5.878,19.988-16.42,27.598c8.408,5.965,11.95,14.736,11.236,22.213
						c-1.732,18.094-15.979,27.144-31.503,26.751c-15.531-0.396-28.915-12.501-29.959-25.648
						c-0.908-11.437,2.563-16.948,10.821-22.972c-9.809-8.109-16.076-13.452-15.842-27.766c0.24-14.318,12.644-31.357,34.26-31.879
						C2786.913-1862.688,2803.229-1844.997,2802.697-1830.462L2802.697-1830.462z M2742.338-1830.51
						c-0.928,13.16,10.925,22.038,24.296,22.177c13.027,0.133,24.678-10.785,24.685-22.599c0-12.693-15.161-19.586-24.951-19.625
						C2754.469-1850.599,2743.136-1841.847,2742.338-1830.51L2742.338-1830.51z M2746.62-1783.434
						c-0.26,11.087,10.153,19.031,20.883,18.713c9.556-0.285,19.67-7.444,19.677-16.712c0.007-11.593-11.502-17.38-21.318-17.597
						C2756.961-1799.228,2746.814-1791.806,2746.62-1783.434z"/>
				</g>
			</g>
		</g>
		<path id="path8634" sodipodi:nodetypes="cccccccc" inkscape:connector-curvature="0" fill="#D40000" d="M1323.202,176.572
			c-1.583-3.474-1.756-9.406,2.971-10.208c3.562-0.459,5.012,1.197,5.3,3.74c0.143,0.743,0.563,0.789,0.694-0.058
			c0.205-2.608,2.788-4.133,4.807-3.75c5.526,0.945,5.204,7.028,3.398,11.155c-2.731,5.479-5.602,8.938-8.245,14.452
			C1329.089,186.163,1325.621,181.499,1323.202,176.572L1323.202,176.572z"/>
		<path id="path8548" sodipodi:nodetypes="ccccsccssc" inkscape:connector-curvature="0" fill="#D40000" d="M1358.18,141.298
			c7.145-0.475,10.869,5.628,11.596,10.438c0.435,0.764,0.67,0.549,0.837-0.042c0.35-6.175,5.875-11.221,10.992-10.53
			c8.328,0.108,13.39,9.375,11.967,17.219c-1.738,9.581-6.898,15.352-10.808,21.293c-4.422,6.152-10.373,15.039-12.291,19.316
			c0,0-6.048-9.204-13.917-20.029c-5.262-7.238-9.473-15.082-9.865-21.835C1346.244,149.41,1349.411,142.494,1358.18,141.298
			L1358.18,141.298z"/>
		<path id="path8550" sodipodi:nodetypes="ccccsccssc" inkscape:connector-curvature="0" fill="#D40000" d="M1467.713,141.298
			c7.145-0.475,10.869,5.628,11.596,10.438c0.434,0.764,0.67,0.549,0.836-0.042c0.35-6.175,5.875-11.221,10.994-10.53
			c8.326,0.108,13.389,9.375,11.965,17.219c-1.738,9.581-6.898,15.352-10.807,21.293c-4.422,6.152-10.373,15.039-12.291,19.316
			c0,0-6.049-9.204-13.916-20.029c-5.262-7.238-9.477-15.082-9.865-21.835C1455.774,149.41,1458.942,142.494,1467.713,141.298
			L1467.713,141.298z"/>
		<path id="path8552" sodipodi:nodetypes="ccccsccssc" inkscape:connector-curvature="0" fill="#D40000" d="M1412.363,191.422
			c7.145-0.475,10.868,5.628,11.596,10.438c0.434,0.764,0.671,0.549,0.837-0.042c0.35-6.176,5.875-11.222,10.994-10.53
			c8.326,0.107,13.389,9.375,11.965,17.219c-1.738,9.581-6.898,15.352-10.807,21.293c-4.422,6.152-10.373,15.039-12.292,19.316
			c0,0-6.049-9.204-13.917-20.029c-5.262-7.238-9.474-15.082-9.864-21.835C1400.426,199.534,1403.594,192.618,1412.363,191.422
			L1412.363,191.422z"/>
		<path id="path8554" sodipodi:nodetypes="ccccsccssc" inkscape:connector-curvature="0" fill="#D40000" d="M1358.18,241.546
			c7.145-0.474,10.869,5.628,11.596,10.438c0.435,0.764,0.67,0.549,0.837-0.042c0.35-6.175,5.875-11.221,10.992-10.53
			c8.328,0.107,13.39,9.375,11.967,17.219c-1.738,9.582-6.898,15.353-10.808,21.293c-4.422,6.152-10.373,15.04-12.291,19.317
			c0,0-6.048-9.205-13.917-20.03c-5.262-7.238-9.473-15.082-9.865-21.835C1346.244,249.658,1349.411,242.742,1358.18,241.546
			L1358.18,241.546z"/>
		<path id="path8556" sodipodi:nodetypes="ccccsccssc" inkscape:connector-curvature="0" fill="#D40000" d="M1467.713,241.546
			c7.145-0.474,10.869,5.628,11.596,10.438c0.434,0.764,0.67,0.549,0.836-0.042c0.35-6.175,5.875-11.221,10.994-10.53
			c8.326,0.107,13.389,9.375,11.965,17.219c-1.738,9.582-6.898,15.353-10.807,21.293c-4.422,6.152-10.373,15.04-12.291,19.317
			c0,0-6.049-9.205-13.916-20.03c-5.262-7.238-9.477-15.082-9.865-21.835C1455.774,249.658,1458.942,242.742,1467.713,241.546
			L1467.713,241.546z"/>
		<path id="path8614" sodipodi:nodetypes="ccccsccssc" inkscape:connector-curvature="0" fill="#D40000" d="M1467.713,397.638
			c7.145,0.475,10.869-5.628,11.596-10.437c0.434-0.766,0.67-0.549,0.836,0.042c0.35,6.174,5.875,11.22,10.994,10.53
			c8.326-0.108,13.389-9.376,11.965-17.22c-1.738-9.582-6.898-15.352-10.807-21.293c-4.422-6.151-10.373-15.04-12.291-19.316
			c0,0-6.049,9.205-13.916,20.028c-5.262,7.239-9.477,15.083-9.865,21.836C1455.774,389.527,1458.942,396.443,1467.713,397.638
			L1467.713,397.638z"/>
		<path id="path8616" sodipodi:nodetypes="ccccsccssc" inkscape:connector-curvature="0" fill="#D40000" d="M1412.363,348.339
			c7.145,0.476,10.868-5.627,11.596-10.437c0.434-0.765,0.671-0.55,0.837,0.042c0.35,6.175,5.875,11.221,10.994,10.529
			c8.326-0.107,13.389-9.375,11.965-17.219c-1.738-9.581-6.898-15.351-10.807-21.293c-4.422-6.151-10.373-15.039-12.292-19.315
			c0,0-6.049,9.203-13.917,20.028c-5.262,7.238-9.474,15.082-9.864,21.835C1400.426,340.226,1403.594,347.142,1412.363,348.339
			L1412.363,348.339z"/>
		<path id="path8618" sodipodi:nodetypes="ccccsccssc" inkscape:connector-curvature="0" fill="#D40000" d="M1358.18,397.638
			c7.145,0.475,10.869-5.628,11.596-10.437c0.435-0.766,0.67-0.549,0.837,0.042c0.35,6.174,5.875,11.22,10.992,10.53
			c8.328-0.108,13.39-9.376,11.967-17.22c-1.738-9.582-6.898-15.352-10.808-21.293c-4.422-6.151-10.373-15.04-12.291-19.316
			c0,0-6.048,9.205-13.917,20.028c-5.262,7.239-9.473,15.083-9.865,21.836C1346.244,389.527,1349.411,396.443,1358.18,397.638
			L1358.18,397.638z"/>
		<path id="path8664" sodipodi:nodetypes="cccccccc" inkscape:connector-curvature="0" fill="#D40000" d="M1512.018,367.428
			c-1.584,3.473-1.758,9.405,2.971,10.208c3.563,0.458,5.012-1.198,5.301-3.742c0.141-0.742,0.561-0.788,0.693,0.06
			c0.205,2.609,2.787,4.133,4.807,3.75c5.527-0.945,5.205-7.028,3.398-11.155c-2.73-5.479-5.6-8.938-8.244-14.452
			C1517.903,357.837,1514.436,362.501,1512.018,367.428L1512.018,367.428z"/>
	</g>
</g>
</svg>
