<?xml version="1.0" encoding="utf-8"?>
<!-- Generator: Adobe Illustrator 16.0.0, SVG Export Plug-In . SVG Version: 6.00 Build 0)  -->
<!DOCTYPE svg PUBLIC "-//W3C//DTD SVG 1.1//EN" "http://www.w3.org/Graphics/SVG/1.1/DTD/svg11.dtd">
<svg version="1.1"
	 id="svg3775" inkscape:version="0.48.1 r9760" sodipodi:docname="Blue_Back.svg" xmlns:dc="http://purl.org/dc/elements/1.1/" xmlns:cc="http://creativecommons.org/ns#" xmlns:rdf="http://www.w3.org/1999/02/22-rdf-syntax-ns#" xmlns:svg="http://www.w3.org/2000/svg" xmlns:sodipodi="http://sodipodi.sourceforge.net/DTD/sodipodi-0.dtd" xmlns:inkscape="http://www.inkscape.org/namespaces/inkscape"
	 xmlns="http://www.w3.org/2000/svg" xmlns:xlink="http://www.w3.org/1999/xlink" x="0px" y="0px" width="222.229px"
	 height="310.811px" viewBox="0 0 222.229 310.811" enable-background="new 0 0 222.229 310.811" xml:space="preserve">
<pattern  x="-194.385" y="551.906" width="744.095" height="1052.362" patternUnits="userSpaceOnUse" id="rect13541_2_" viewBox="0 -1052.362 744.095 1052.362" overflow="visible">
	<g>
		<polygon fill="none" points="0,0 744.095,0 744.095,-1052.362 0,-1052.362 		"/>
		<g>
			<polygon fill="none" points="0,-1052.362 744.095,-1052.362 744.095,0 0,0 			"/>
			<g>
				<polygon fill="none" points="0,0 744.095,0 744.095,-1052.362 0,-1052.362 				"/>
			</g>
		</g>
	</g>
</pattern>
<sodipodi:namedview  pagecolor="#ffffff" bordercolor="#666666" borderopacity="1.0" inkscape:zoom="0.7" inkscape:cx="81.76098" inkscape:cy="529.84002" showgrid="false" id="base" inkscape:window-maximized="0" inkscape:pageopacity="0.0" inkscape:pageshadow="2" inkscape:document-units="px" inkscape:current-layer="layer1" inkscape:window-width="1320" inkscape:window-height="932" inkscape:window-x="30" inkscape:window-y="30">
	</sodipodi:namedview>
<g id="layer1" inkscape:label="BLUE_BACK" inkscape:groupmode="layer">
	<g id="g13552" transform="translate(520.04751,-131.04053)">
		<path id="rect13537" fill="#FFFFFF" stroke="#000000" d="M-509.417,131.041h200.969c5.871,0,10.629,4.759,10.629,10.63v289.552
			c0,5.87-4.758,10.63-10.629,10.63h-200.969c-5.87,0-10.63-4.76-10.63-10.63V141.671
			C-520.047,135.8-515.288,131.041-509.417,131.041z"/>
		
			<rect id="rect13539" x="-507.459" y="143.124" fill="none" stroke="#131F67" stroke-width="4.9524" stroke-linecap="round" width="197.052" height="286.646"/>
		
			<pattern  id="rect13541_1_" xlink:href="#rect13541_2_" patternTransform="matrix(-0.1106 0.1106 0.1106 0.1106 -23069.0664 -4602.7783)">
		</pattern>
		
			<rect id="rect13541" x="-503.072" y="146.993" fill="url(#rect13541_1_)" stroke="#131F67" stroke-linecap="round" width="188.276" height="278.905"/>
	</g>
</g>
</svg>
