<?xml version="1.0" encoding="utf-8"?>
<!-- Generator: Adobe Illustrator 16.0.0, SVG Export Plug-In . SVG Version: 6.00 Build 0)  -->
<!DOCTYPE svg PUBLIC "-//W3C//DTD SVG 1.1//EN" "http://www.w3.org/Graphics/SVG/1.1/DTD/svg11.dtd">
<svg version="1.1"
	 id="svg4423" xmlns:dc="http://purl.org/dc/elements/1.1/" xmlns:cc="http://creativecommons.org/ns#" xmlns:rdf="http://www.w3.org/1999/02/22-rdf-syntax-ns#" xmlns:svg="http://www.w3.org/2000/svg" xmlns:sodipodi="http://sodipodi.sourceforge.net/DTD/sodipodi-0.dtd" xmlns:inkscape="http://www.inkscape.org/namespaces/inkscape" inkscape:version="0.48.1 r9760" sodipodi:docname="AH.svg"
	 xmlns="http://www.w3.org/2000/svg" xmlns:xlink="http://www.w3.org/1999/xlink" x="0px" y="0px" width="223.229px"
	 height="311.811px" viewBox="0 0 223.229 311.811" enable-background="new 0 0 223.229 311.811" xml:space="preserve">
<sodipodi:namedview  pagecolor="#ffffff" bordercolor="#666666" borderopacity="1.0" inkscape:zoom="0.98994948" inkscape:cx="238.22195" inkscape:cy="442.43337" showgrid="false" id="base" inkscape:document-units="px" inkscape:window-width="735" inkscape:window-height="925" inkscape:current-layer="layer1" inkscape:snap-global="true" inkscape:window-x="784" inkscape:snap-page="true" inkscape:snap-bbox="true" inkscape:window-y="63" inkscape:window-maximized="0" inkscape:pageopacity="0.0" inkscape:pageshadow="2">
	</sodipodi:namedview>
<g id="layer1" inkscape:label="Layer 1" inkscape:groupmode="layer">
	<g id="g8889" transform="translate(-1090.3923,198.14981)">
		<g id="g8763">
			<g id="g8869" transform="translate(-4683.8753,2918.9368)">
				<path id="rect3232" fill="#FFFFFF" stroke="#000000" stroke-width="0.9967" d="M5784.898-3117.086h201.968
					c5.871,0,10.629,4.76,10.629,10.63v290.552c0,5.871-4.758,10.63-10.629,10.63h-201.968c-5.871,0-10.63-4.76-10.63-10.63
					v-290.552C5774.268-3112.328,5779.027-3117.086,5784.898-3117.086z"/>
				<g id="g8567" transform="matrix(0.30106207,0,0,0.30106207,5730.6419,-1948.1116)">
					<path id="path7183" inkscape:connector-curvature="0" sodipodi:nodetypes="ccccccccccccccccccccc" fill="#D40000" d="
						M168.948-3729.835v-9.092h8.839l18.814-97.224h10.704l20.737,97.224h7.133v9.092H210.87v-9.092h6.565l-2.621-14.896h-24.529
						l-1.891,14.896h6.562v9.092H168.948L168.948-3729.835z M212.715-3764.432l-10.656-52.049l-9.987,52.049H212.715z"/>
					<path id="path7186" inkscape:connector-curvature="0" sodipodi:nodetypes="ccccccccccccccccccccc" fill="#D40000" d="
						M862.346-3000.152v9.089h-8.836l-18.814,97.231h-10.711l-20.734-97.231h-7.136v-9.089h24.308v9.089h-6.565l2.614,14.905h24.536
						l1.894-14.905h-6.565v-9.089H862.346z M818.575-2965.551l10.659,52.049l9.984-52.049H818.575z"/>
				</g>
			</g>
		</g>
		<path id="path8626" inkscape:connector-curvature="0" sodipodi:nodetypes="cccccccc" fill="#D40000" d="M1098.674-137.396
			c-1.583-3.474-1.757-9.404,2.971-10.208c3.563-0.458,5.014,1.197,5.302,3.741c0.142,0.743,0.562,0.788,0.693-0.06
			c0.204-2.608,2.787-4.133,4.808-3.749c5.525,0.944,5.203,7.027,3.396,11.154c-2.729,5.479-5.601,8.938-8.245,14.452
			C1104.562-127.805,1101.092-132.469,1098.674-137.396L1098.674-137.396z"/>
		<path id="path8512" inkscape:connector-curvature="0" sodipodi:nodetypes="ccccsccssc" fill="#D40000" d="M1189.958-70.991
			c7.146-0.475,10.868,5.628,11.596,10.438c0.435,0.765,0.671,0.549,0.837-0.042c0.348-6.174,5.875-11.221,10.994-10.53
			c8.328,0.108,13.39,9.375,11.968,17.22c-1.738,9.582-6.9,15.353-10.81,21.293c-4.422,6.151-10.373,15.04-12.291,19.316
			c0,0-6.049-9.205-13.917-20.029c-5.263-7.237-9.475-15.082-9.865-21.835C1178.021-62.88,1181.188-69.796,1189.958-70.991
			L1189.958-70.991z"/>
		<path id="path8648" inkscape:connector-curvature="0" sodipodi:nodetypes="cccccccc" fill="#D40000" d="M1287.053,53.291
			c-1.584,3.473-1.758,9.405,2.972,10.208c3.563,0.458,5.012-1.197,5.301-3.741c0.143-0.742,0.562-0.788,0.692,0.06
			c0.205,2.608,2.787,4.133,4.808,3.75c5.526-0.945,5.205-7.028,3.397-11.156c-2.729-5.479-5.6-8.938-8.244-14.451
			C1292.941,43.698,1289.471,48.362,1287.053,53.291L1287.053,53.291z"/>
	</g>
</g>
</svg>
