<?xml version="1.0" encoding="utf-8"?>
<!-- Generator: Adobe Illustrator 16.0.0, SVG Export Plug-In . SVG Version: 6.00 Build 0)  -->
<!DOCTYPE svg PUBLIC "-//W3C//DTD SVG 1.1//EN" "http://www.w3.org/Graphics/SVG/1.1/DTD/svg11.dtd">
<svg version="1.1"
	 id="svg4423" xmlns:dc="http://purl.org/dc/elements/1.1/" xmlns:cc="http://creativecommons.org/ns#" xmlns:rdf="http://www.w3.org/1999/02/22-rdf-syntax-ns#" xmlns:svg="http://www.w3.org/2000/svg" xmlns:sodipodi="http://sodipodi.sourceforge.net/DTD/sodipodi-0.dtd" xmlns:inkscape="http://www.inkscape.org/namespaces/inkscape" inkscape:version="0.48.1 r9760" sodipodi:docname="10H.svg"
	 xmlns="http://www.w3.org/2000/svg" xmlns:xlink="http://www.w3.org/1999/xlink" x="0px" y="0px" width="223.229px"
	 height="311.811px" viewBox="0 0 223.229 311.811" enable-background="new 0 0 223.229 311.811" xml:space="preserve">
<sodipodi:namedview  pagecolor="#ffffff" bordercolor="#666666" borderopacity="1.0" inkscape:zoom="0.69999999" inkscape:cx="126.73995" inkscape:cy="451.52252" showgrid="false" id="base" inkscape:document-units="px" inkscape:window-width="735" inkscape:window-height="925" inkscape:current-layer="layer1" inkscape:snap-global="true" inkscape:window-x="705" inkscape:snap-page="true" inkscape:snap-bbox="true" inkscape:window-y="60" inkscape:window-maximized="0" inkscape:pageopacity="0.0" inkscape:pageshadow="2">
	</sodipodi:namedview>
<g id="layer1" inkscape:label="10H" inkscape:groupmode="layer">
	<g id="g8970" transform="translate(-1760.0774,-113.66123)">
		<g id="g8891">
			<g id="g8795" transform="translate(-4683.8753,2918.9368)">
				<path id="rect6365" fill="#FFFFFF" stroke="#000000" stroke-width="0.9967" d="M6454.583-2805.275h201.968
					c5.869,0,10.629,4.76,10.629,10.63v290.552c0,5.871-4.76,10.63-10.629,10.63h-201.968c-5.871,0-10.63-4.76-10.63-10.63v-290.552
					C6443.952-2800.518,6448.713-2805.275,6454.583-2805.275z"/>
				<g id="g8612" transform="matrix(0.30106207,0,0,0.30106207,5267.5599,-1982.7028)">
					<path id="path7216" inkscape:connector-curvature="0" sodipodi:nodetypes="ccccc" fill="#D40000" d="M3932.822-2581.624
						v-104.649h10.328v104.649H3932.822z"/>
					<path id="rect7235" inkscape:connector-curvature="0" fill="#D40000" d="M3973.774-2686.273
						c-9.945,0-17.941,8.924-17.941,20.004v64.644c0,11.077,7.996,20.004,17.941,20.004h5.797c9.945,0,17.957-8.927,17.957-20.004
						v-64.644c0-11.081-8.009-20.004-17.957-20.004H3973.774z M3976.765-2676.383c5.878,0,10.604,4.441,10.604,9.971v65.51
						c0,5.531-4.726,9.988-10.604,9.988c-5.871,0-10.597-4.457-10.597-9.988v-65.51
						C3966.167-2671.943,3970.894-2676.383,3976.765-2676.383z"/>
					<g id="g7984" transform="matrix(-0.50404239,0,0,-0.50404239,7403.6384,312.07817)">
						<path id="path7986" inkscape:connector-curvature="0" sodipodi:nodetypes="ccccc" fill="#D40000" d="M5515.472,4283.833
							v-207.626h20.503v207.626H5515.472z"/>
						<path id="path7988" inkscape:connector-curvature="0" fill="#D40000" d="M5596.725,4076.208
							c-19.731,0-35.588,17.704-35.588,39.687v128.246c0,21.983,15.857,39.693,35.588,39.693h11.506
							c19.731,0,35.627-17.71,35.627-39.693v-128.246c0-21.983-15.896-39.687-35.627-39.687H5596.725L5596.725,4076.208z
							 M5602.658,4095.829c11.661,0,21.031,8.81,21.031,19.782v129.97c0,10.972-9.37,19.808-21.031,19.808
							c-11.647,0-21.031-8.836-21.031-19.808v-129.97C5581.627,4104.639,5591.011,4095.829,5602.658,4095.829z"/>
					</g>
				</g>
			</g>
		</g>
		<path id="path8644" inkscape:connector-curvature="0" sodipodi:nodetypes="cccccccc" fill="#D40000" d="M1768.603,173.801
			c-1.583-3.473-1.757-9.404,2.971-10.208c3.563-0.459,5.013,1.198,5.301,3.741c0.143,0.742,0.562,0.789,0.694-0.06
			c0.205-2.607,2.787-4.132,4.808-3.749c5.525,0.945,5.203,7.027,3.397,11.154c-2.73,5.479-5.602,8.938-8.245,14.451
			C1774.49,183.392,1771.021,178.729,1768.603,173.801L1768.603,173.801z"/>
		<path id="path8568" inkscape:connector-curvature="0" sodipodi:nodetypes="ccccsccssc" fill="#D40000" d="M1803.105,141.985
			c7.145-0.476,10.867,5.627,11.595,10.438c0.436,0.765,0.671,0.55,0.837-0.043c0.351-6.174,5.875-11.221,10.993-10.528
			c8.327,0.106,13.391,9.375,11.966,17.219c-1.737,9.581-6.897,15.352-10.809,21.292c-4.42,6.152-10.373,15.04-12.289,19.316
			c0,0-6.05-9.204-13.918-20.028c-5.262-7.238-9.474-15.082-9.864-21.836C1791.168,150.097,1794.335,143.18,1803.105,141.985
			L1803.105,141.985z"/>
		<path id="path8570" inkscape:connector-curvature="0" sodipodi:nodetypes="ccccsccssc" fill="#D40000" d="M1859.288,174.65
			c7.146-0.476,10.868,5.627,11.597,10.438c0.434,0.764,0.671,0.549,0.837-0.043c0.351-6.174,5.875-11.221,10.993-10.529
			c8.328,0.107,13.391,9.375,11.967,17.22c-1.738,9.581-6.9,15.352-10.809,21.293c-4.421,6.151-10.371,15.039-12.29,19.315
			c0,0-6.05-9.204-13.918-20.029c-5.263-7.236-9.474-15.081-9.865-21.836C1847.352,182.761,1850.518,175.845,1859.288,174.65
			L1859.288,174.65z"/>
		<path id="path8572" inkscape:connector-curvature="0" sodipodi:nodetypes="ccccsccssc" fill="#D40000" d="M1914.639,141.985
			c7.145-0.476,10.865,5.627,11.596,10.438c0.433,0.765,0.67,0.55,0.836-0.043c0.351-6.174,5.875-11.221,10.992-10.528
			c8.326,0.106,13.391,9.375,11.967,17.219c-1.737,9.581-6.899,15.352-10.811,21.292c-4.42,6.152-10.371,15.04-12.289,19.316
			c0,0-6.049-9.204-13.918-20.028c-5.262-7.238-9.473-15.082-9.863-21.836C1902.7,150.097,1905.868,143.18,1914.639,141.985
			L1914.639,141.985z"/>
		<path id="path8574" inkscape:connector-curvature="0" sodipodi:nodetypes="ccccsccssc" fill="#D40000" d="M1914.639,207.315
			c7.145-0.476,10.865,5.628,11.596,10.438c0.433,0.764,0.67,0.549,0.836-0.042c0.351-6.176,5.875-11.222,10.992-10.53
			c8.326,0.108,13.391,9.375,11.967,17.22c-1.737,9.58-6.899,15.352-10.811,21.293c-4.42,6.151-10.371,15.039-12.289,19.315
			c0,0-6.049-9.204-13.918-20.028c-5.262-7.238-9.473-15.082-9.863-21.836C1902.7,215.427,1905.868,208.51,1914.639,207.315
			L1914.639,207.315z"/>
		<path id="path8576" inkscape:connector-curvature="0" sodipodi:nodetypes="ccccsccssc" fill="#D40000" d="M1803.105,207.315
			c7.145-0.476,10.867,5.628,11.595,10.438c0.436,0.764,0.671,0.549,0.837-0.042c0.351-6.176,5.875-11.222,10.993-10.53
			c8.327,0.108,13.391,9.375,11.966,17.22c-1.737,9.58-6.897,15.352-10.809,21.293c-4.42,6.151-10.373,15.039-12.289,19.315
			c0,0-6.05-9.204-13.918-20.028c-5.262-7.238-9.474-15.082-9.864-21.836C1791.168,215.427,1794.335,208.51,1803.105,207.315
			L1803.105,207.315z"/>
		<path id="path8596" inkscape:connector-curvature="0" sodipodi:nodetypes="ccccsccssc" fill="#D40000" d="M1914.639,331.705
			c7.145,0.475,10.865-5.628,11.596-10.438c0.433-0.764,0.67-0.549,0.836,0.042c0.351,6.175,5.875,11.222,10.992,10.53
			c8.326-0.107,13.391-9.375,11.967-17.219c-1.737-9.582-6.899-15.353-10.811-21.293c-4.42-6.152-10.371-15.04-12.289-19.317
			c0,0-6.049,9.205-13.918,20.03c-5.262,7.237-9.473,15.082-9.863,21.835C1902.7,323.593,1905.868,330.509,1914.639,331.705
			L1914.639,331.705z"/>
		<path id="path8598" inkscape:connector-curvature="0" sodipodi:nodetypes="ccccsccssc" fill="#D40000" d="M1914.639,396.81
			c7.145,0.477,10.865-5.628,11.596-10.437c0.433-0.766,0.67-0.55,0.836,0.042c0.351,6.174,5.875,11.221,10.992,10.529
			c8.326-0.107,13.391-9.376,11.967-17.22c-1.737-9.581-6.899-15.352-10.811-21.293c-4.42-6.151-10.371-15.04-12.289-19.316
			c0,0-6.049,9.205-13.918,20.03c-5.262,7.237-9.473,15.081-9.863,21.835C1902.7,388.698,1905.868,395.615,1914.639,396.81
			L1914.639,396.81z"/>
		<path id="path8600" inkscape:connector-curvature="0" sodipodi:nodetypes="ccccsccssc" fill="#D40000" d="M1858.82,364.258
			c7.146,0.476,10.869-5.628,11.596-10.438c0.435-0.765,0.672-0.55,0.838,0.042c0.351,6.175,5.875,11.222,10.993,10.529
			c8.328-0.107,13.39-9.375,11.968-17.219c-1.738-9.582-6.9-15.352-10.81-21.293c-4.424-6.152-10.373-15.04-12.292-19.316
			c0,0-6.049,9.204-13.916,20.029c-5.263,7.238-9.475,15.082-9.864,21.835C1846.883,356.145,1850.05,363.061,1858.82,364.258
			L1858.82,364.258z"/>
		<path id="path8602" inkscape:connector-curvature="0" sodipodi:nodetypes="ccccsccssc" fill="#D40000" d="M1803.105,331.705
			c7.145,0.475,10.867-5.628,11.595-10.438c0.436-0.764,0.671-0.549,0.837,0.042c0.351,6.175,5.875,11.222,10.993,10.53
			c8.327-0.107,13.391-9.375,11.966-17.219c-1.737-9.582-6.897-15.353-10.809-21.293c-4.42-6.152-10.373-15.04-12.289-19.317
			c0,0-6.05,9.205-13.918,20.03c-5.262,7.237-9.474,15.082-9.864,21.835C1791.168,323.593,1794.335,330.509,1803.105,331.705
			L1803.105,331.705z"/>
		<path id="path8604" inkscape:connector-curvature="0" sodipodi:nodetypes="ccccsccssc" fill="#D40000" d="M1803.105,396.81
			c7.145,0.477,10.867-5.628,11.595-10.437c0.436-0.766,0.671-0.55,0.837,0.042c0.351,6.174,5.875,11.221,10.993,10.529
			c8.327-0.107,13.391-9.376,11.966-17.22c-1.737-9.581-6.897-15.352-10.809-21.293c-4.42-6.151-10.373-15.04-12.289-19.316
			c0,0-6.05,9.205-13.918,20.03c-5.262,7.237-9.474,15.081-9.864,21.835C1791.168,388.698,1794.335,395.615,1803.105,396.81
			L1803.105,396.81z"/>
		<path id="path8660" inkscape:connector-curvature="0" sodipodi:nodetypes="cccccccc" fill="#D40000" d="M1957.417,364.657
			c-1.582,3.473-1.757,9.405,2.973,10.208c3.562,0.458,5.012-1.197,5.301-3.741c0.144-0.743,0.563-0.788,0.695,0.059
			c0.201,2.609,2.787,4.134,4.807,3.75c5.523-0.944,5.203-7.027,3.396-11.154c-2.73-5.479-5.603-8.938-8.246-14.451
			C1963.307,355.067,1959.834,359.731,1957.417,364.657L1957.417,364.657z"/>
	</g>
</g>
</svg>
