<?xml version="1.0" encoding="utf-8"?>
<!-- Generator: Adobe Illustrator 16.0.0, SVG Export Plug-In . SVG Version: 6.00 Build 0)  -->
<!DOCTYPE svg PUBLIC "-//W3C//DTD SVG 1.1//EN" "http://www.w3.org/Graphics/SVG/1.1/DTD/svg11.dtd">
<svg version="1.1"
	 id="svg4423" xmlns:dc="http://purl.org/dc/elements/1.1/" xmlns:cc="http://creativecommons.org/ns#" xmlns:rdf="http://www.w3.org/1999/02/22-rdf-syntax-ns#" xmlns:svg="http://www.w3.org/2000/svg" xmlns:sodipodi="http://sodipodi.sourceforge.net/DTD/sodipodi-0.dtd" xmlns:inkscape="http://www.inkscape.org/namespaces/inkscape" inkscape:version="0.48.1 r9760" sodipodi:docname="5H.svg"
	 xmlns="http://www.w3.org/2000/svg" xmlns:xlink="http://www.w3.org/1999/xlink" x="0px" y="0px" width="223.229px"
	 height="311.811px" viewBox="0 0 223.229 311.811" enable-background="new 0 0 223.229 311.811" xml:space="preserve">
<sodipodi:namedview  pagecolor="#ffffff" bordercolor="#666666" borderopacity="1.0" inkscape:zoom="0.98994948" inkscape:cx="199.26695" inkscape:cy="514.96342" showgrid="false" id="base" inkscape:document-units="px" inkscape:window-width="735" inkscape:window-height="925" inkscape:current-layer="layer1" inkscape:snap-global="true" inkscape:window-x="578" inkscape:snap-page="true" inkscape:snap-bbox="true" inkscape:window-y="17" inkscape:window-maximized="0" inkscape:pageopacity="0.0" inkscape:pageshadow="2">
	</sodipodi:namedview>
<g id="layer1" inkscape:label="5H" inkscape:groupmode="layer">
	<g id="g8939" transform="translate(-1983.3059,198.14981)">
		<g id="g8809">
			<g id="g8915" transform="translate(-4683.8753,2918.9368)">
				<path id="rect6355" fill="#FFFFFF" stroke="#000000" stroke-width="0.9967" d="M6677.812-3117.086h201.968
					c5.869,0,10.629,4.76,10.629,10.63v290.552c0,5.871-4.76,10.63-10.629,10.63h-201.968c-5.871,0-10.63-4.76-10.63-10.63v-290.552
					C6667.182-3112.328,6671.939-3117.086,6677.812-3117.086z"/>
				<g id="g8601" transform="matrix(0.30106207,0,0,0.30106207,5562.5812,-1947.8121)">
					<path id="path7106" inkscape:connector-curvature="0" sodipodi:nodetypes="cccssccccccccccc" fill="#D40000" d="
						M3696.183-3759.157l10.695-0.094c2.034,6.458,6.549,13.043,12.677,14.863c17.315,4.068,28.46-5.605,32.129-16.76
						c4.45-13.533-0.101-32.538-12.015-39.288c-9.884-5.599-24.565-0.876-31.295,11.09l-7.5-4.583l4.025-44.582h48.928v10.536
						h-39.655l-0.62,18.57c8.521-5.988,21.649-5.926,30.177-1.729c16.16,7.704,23.663,25.223,20.52,45.876
						c-4.353,20.536-13.945,32.178-35.6,33.845c-24.065,0.208-32.564-16.335-32.47-27.737L3696.183-3759.157z"/>
					<path id="path7122" inkscape:connector-curvature="0" sodipodi:nodetypes="cccssccccccccccc" fill="#D40000" d="
						M4383.318-2972.823l-10.691,0.094c-2.037-6.455-6.553-13.04-12.683-14.856c-17.315-4.064-28.454,5.605-32.126,16.76
						c-4.451,13.536,0.104,32.541,12.015,39.288c9.887,5.605,24.568,0.879,31.289-11.087l7.506,4.58l-4.022,44.585h-48.929v-10.539
						h39.651l0.623-18.567c-8.524,5.988-21.655,5.923-30.18,1.729c-16.16-7.707-23.666-25.22-20.526-45.876
						c4.353-20.536,13.941-32.178,35.603-33.845C4374.917-3000.771,4383.409-2984.228,4383.318-2972.823L4383.318-2972.823z"/>
				</g>
			</g>
		</g>
		<path id="path8640" inkscape:connector-curvature="0" sodipodi:nodetypes="cccccccc" fill="#D40000" d="M1992.818-137.554
			c-1.583-3.473-1.756-9.404,2.973-10.208c3.562-0.458,5.012,1.198,5.3,3.742c0.143,0.743,0.562,0.788,0.693-0.06
			c0.205-2.608,2.787-4.132,4.808-3.75c5.525,0.945,5.204,7.027,3.397,11.154c-2.73,5.479-5.602,8.938-8.245,14.452
			C1998.707-127.962,1995.236-132.626,1992.818-137.554L1992.818-137.554z"/>
		<path id="path8524" inkscape:connector-curvature="0" sodipodi:nodetypes="ccccsccssc" fill="#D40000" d="M2027.362-170.228
			c7.145-0.476,10.868,5.628,11.596,10.438c0.434,0.765,0.671,0.549,0.838-0.042c0.35-6.175,5.875-11.222,10.992-10.53
			c8.327,0.108,13.39,9.375,11.967,17.22c-1.739,9.581-6.9,15.351-10.81,21.293c-4.422,6.151-10.373,15.039-12.291,19.315
			c0,0-6.048-9.204-13.916-20.028c-5.263-7.238-9.474-15.082-9.864-21.835C2015.424-162.115,2018.591-169.031,2027.362-170.228
			L2027.362-170.228z"/>
		<path id="path8526" inkscape:connector-curvature="0" sodipodi:nodetypes="ccccsccssc" fill="#D40000" d="M2138.043-170.228
			c7.145-0.476,10.866,5.628,11.596,10.438c0.434,0.765,0.672,0.549,0.838-0.042c0.35-6.175,5.875-11.222,10.99-10.53
			c8.327,0.108,13.391,9.375,11.969,17.22c-1.738,9.581-6.9,15.351-10.812,21.293c-4.422,6.151-10.373,15.039-12.289,19.315
			c0,0-6.049-9.204-13.918-20.028c-5.262-7.238-9.473-15.082-9.864-21.835C2126.107-162.115,2129.273-169.031,2138.043-170.228
			L2138.043-170.228z"/>
		<path id="path8528" inkscape:connector-curvature="0" sodipodi:nodetypes="ccccsccssc" fill="#D40000" d="M2082.872-70.991
			c7.145-0.475,10.868,5.628,11.596,10.438c0.435,0.765,0.671,0.549,0.837-0.042c0.351-6.174,5.875-11.221,10.994-10.53
			c8.327,0.108,13.389,9.375,11.967,17.22c-1.738,9.582-6.9,15.353-10.81,21.293c-4.422,6.151-10.373,15.04-12.291,19.316
			c0,0-6.05-9.205-13.917-20.029c-5.262-7.237-9.475-15.082-9.864-21.835C2070.933-62.88,2074.101-69.796,2082.872-70.991
			L2082.872-70.991z"/>
		<path id="path8588" inkscape:connector-curvature="0" sodipodi:nodetypes="ccccsccssc" fill="#D40000" d="M2027.362,83.916
			c7.145,0.477,10.868-5.627,11.596-10.437c0.434-0.765,0.671-0.55,0.838,0.043c0.35,6.174,5.875,11.22,10.992,10.528
			c8.327-0.106,13.39-9.375,11.967-17.22c-1.739-9.58-6.9-15.351-10.81-21.293c-4.422-6.151-10.373-15.039-12.291-19.314
			c0,0-6.048,9.203-13.916,20.027c-5.263,7.238-9.474,15.082-9.864,21.837C2015.424,75.803,2018.591,82.719,2027.362,83.916
			L2027.362,83.916z"/>
		<path id="path8590" inkscape:connector-curvature="0" sodipodi:nodetypes="ccccsccssc" fill="#D40000" d="M2138.043,83.916
			c7.145,0.477,10.866-5.627,11.596-10.437c0.434-0.765,0.672-0.55,0.838,0.043c0.35,6.174,5.875,11.22,10.99,10.528
			c8.327-0.106,13.391-9.375,11.969-17.22c-1.738-9.58-6.9-15.351-10.812-21.293c-4.422-6.151-10.373-15.039-12.289-19.314
			c0,0-6.049,9.203-13.918,20.027c-5.262,7.238-9.473,15.082-9.864,21.837C2126.107,75.803,2129.273,82.719,2138.043,83.916
			L2138.043,83.916z"/>
		<path id="path8656" inkscape:connector-curvature="0" sodipodi:nodetypes="cccccccc" fill="#D40000" d="M2179.525,53.303
			c-1.584,3.474-1.758,9.406,2.971,10.208c3.564,0.459,5.013-1.197,5.3-3.74c0.145-0.743,0.563-0.789,0.694,0.058
			c0.205,2.609,2.787,4.134,4.808,3.75c5.526-0.944,5.202-7.027,3.397-11.154c-2.729-5.479-5.6-8.938-8.244-14.451
			C2185.413,43.713,2181.943,48.377,2179.525,53.303L2179.525,53.303z"/>
	</g>
</g>
</svg>
