<?xml version="1.0" encoding="utf-8"?>
<!-- Generator: Adobe Illustrator 16.0.0, SVG Export Plug-In . SVG Version: 6.00 Build 0)  -->
<!DOCTYPE svg PUBLIC "-//W3C//DTD SVG 1.1//EN" "http://www.w3.org/Graphics/SVG/1.1/DTD/svg11.dtd">
<svg version="1.1"
	 id="svg4423" xmlns:dc="http://purl.org/dc/elements/1.1/" xmlns:cc="http://creativecommons.org/ns#" xmlns:rdf="http://www.w3.org/1999/02/22-rdf-syntax-ns#" xmlns:svg="http://www.w3.org/2000/svg" xmlns:sodipodi="http://sodipodi.sourceforge.net/DTD/sodipodi-0.dtd" xmlns:inkscape="http://www.inkscape.org/namespaces/inkscape" inkscape:version="0.48.1 r9760" sodipodi:docname="6H.svg"
	 xmlns="http://www.w3.org/2000/svg" xmlns:xlink="http://www.w3.org/1999/xlink" x="0px" y="0px" width="223.229px"
	 height="311.811px" viewBox="0 0 223.229 311.811" enable-background="new 0 0 223.229 311.811" xml:space="preserve">
<sodipodi:namedview  pagecolor="#ffffff" bordercolor="#666666" borderopacity="1.0" inkscape:zoom="0.49497474" inkscape:cx="40.510903" inkscape:cy="601.70801" showgrid="false" id="base" inkscape:document-units="px" inkscape:window-width="735" inkscape:window-height="925" inkscape:current-layer="layer1" inkscape:snap-global="true" inkscape:window-x="1105" inkscape:snap-page="true" inkscape:snap-bbox="true" inkscape:window-y="41" inkscape:window-maximized="0" inkscape:pageopacity="0.0" inkscape:pageshadow="2">
	</sodipodi:namedview>
<g id="layer1" inkscape:label="6h" inkscape:groupmode="layer">
	<g id="g8954" transform="translate(-2206.5344,198.14981)">
		<g id="g8823">
			<g id="g8929" transform="translate(-4683.8753,2918.9368)">
				<path id="rect6357" fill="#FFFFFF" stroke="#000000" stroke-width="0.9967" d="M6901.04-3117.086h201.968
					c5.869,0,10.629,4.76,10.629,10.63v290.552c0,5.871-4.76,10.63-10.629,10.63H6901.04c-5.871,0-10.63-4.76-10.63-10.63v-290.552
					C6890.409-3112.328,6895.17-3117.086,6901.04-3117.086z"/>
				<g id="g8673" transform="matrix(0.30106207,0,0,0.30106207,6829.277,-2295.2794)">
					<path id="path7108" inkscape:connector-curvature="0" sodipodi:nodetypes="cssccacccccszsss" fill="#D40000" d="
						M230.426-2610.117c-1.359-9.128-1.333-32.7-0.217-39.667c3.416-21.354,11.729-31.117,25.651-34.322
						c13.51-3.111,32.512,0.35,36.68,18.207l-11.314,0.211c-6.111-12.07-21.574-8.839-30.277-3.594
						c-6.951,4.191-10.094,21.655-8.748,22.732c-0.01,0,13.144-9.556,23.501-8.852c22.151,2.261,31.282,21.11,30.51,38.925
						c-0.701,21.425-7.626,38.539-31.094,39.68C242.804-2577.638,232.564-2589.584,230.426-2610.117z M285.466-2615.781
						c0.12-14.866-6.753-25.982-19.764-27.215c-13.004-1.226-26.115,11.233-25.207,26.381c0.908,15.2,6.903,28.013,22.674,27.935
						C280.126-2588.751,285.378-2605.206,285.466-2615.781L285.466-2615.781z"/>
					<path id="path7161" inkscape:connector-curvature="0" sodipodi:nodetypes="cssccacccccszsss" fill="#D40000" d="
						M917.152-1813.572c1.356,9.128,1.336,32.7,0.221,39.671c-3.419,21.35-11.729,31.117-25.651,34.319
						c-13.513,3.108-32.515-0.35-36.68-18.207l11.314-0.211c6.111,12.07,21.571,8.842,30.277,3.594
						c6.958-4.191,10.094-21.655,8.755-22.729c0.003,0-13.147,9.556-23.504,8.852c-22.148-2.264-31.282-21.113-30.51-38.928
						c0.707-21.425,7.623-38.539,31.094-39.684C904.781-1846.048,915.011-1834.104,917.152-1813.572L917.152-1813.572z
						 M862.113-1807.905c-0.123,14.863,6.753,25.982,19.761,27.212c13.007,1.226,26.119-11.233,25.217-26.385
						c-0.915-15.2-6.909-28.006-22.68-27.935C867.452-1834.935,862.203-1818.483,862.113-1807.905L862.113-1807.905z"/>
				</g>
			</g>
		</g>
		<path id="path8642" inkscape:connector-curvature="0" sodipodi:nodetypes="cccccccc" fill="#D40000" d="M2215.186-138.776
			c-1.583-3.474-1.757-9.405,2.971-10.208c3.562-0.459,5.013,1.197,5.301,3.74c0.143,0.742,0.562,0.789,0.694-0.06
			c0.205-2.607,2.787-4.132,4.807-3.749c5.526,0.945,5.204,7.028,3.397,11.155c-2.729,5.479-5.602,8.938-8.245,14.45
			C2221.073-129.184,2217.604-133.849,2215.186-138.776L2215.186-138.776z"/>
		<path id="path8530" inkscape:connector-curvature="0" sodipodi:nodetypes="ccccsccssc" fill="#D40000" d="M2250.472-169.787
			c7.146-0.475,10.868,5.628,11.597,10.438c0.434,0.766,0.671,0.549,0.837-0.042c0.351-6.174,5.875-11.221,10.992-10.529
			c8.327,0.107,13.39,9.376,11.967,17.219c-1.738,9.582-6.899,15.352-10.81,21.293c-4.421,6.151-10.372,15.04-12.289,19.316
			c0,0-6.05-9.205-13.918-20.029c-5.263-7.238-9.474-15.082-9.864-21.835C2238.538-161.675,2241.705-168.591,2250.472-169.787
			L2250.472-169.787z"/>
		<path id="path8532" inkscape:connector-curvature="0" sodipodi:nodetypes="ccccsccssc" fill="#D40000" d="M2362.006-169.787
			c7.145-0.475,10.867,5.628,11.596,10.438c0.435,0.766,0.672,0.549,0.838-0.042c0.351-6.174,5.875-11.221,10.99-10.529
			c8.328,0.107,13.393,9.376,11.969,17.219c-1.738,9.582-6.899,15.352-10.811,21.293c-4.42,6.151-10.373,15.04-12.289,19.316
			c0,0-6.05-9.205-13.918-20.029c-5.263-7.238-9.474-15.082-9.865-21.835C2350.068-161.675,2353.236-168.591,2362.006-169.787
			L2362.006-169.787z"/>
		<path id="path8534" inkscape:connector-curvature="0" sodipodi:nodetypes="ccccsccssc" fill="#D40000" d="M2362.006-70.894
			c7.145-0.475,10.867,5.628,11.596,10.438c0.435,0.766,0.672,0.549,0.838-0.042c0.351-6.175,5.875-11.221,10.99-10.53
			c8.328,0.107,13.393,9.375,11.969,17.22c-1.738,9.582-6.899,15.353-10.811,21.293c-4.42,6.151-10.373,15.04-12.289,19.316
			c0,0-6.05-9.205-13.918-20.029c-5.263-7.238-9.474-15.082-9.865-21.835C2350.068-62.781,2353.236-69.698,2362.006-70.894
			L2362.006-70.894z"/>
		<path id="path8536" inkscape:connector-curvature="0" sodipodi:nodetypes="ccccsccssc" fill="#D40000" d="M2250.472-70.894
			c7.146-0.475,10.868,5.628,11.597,10.438c0.434,0.766,0.671,0.549,0.837-0.042c0.351-6.175,5.875-11.221,10.992-10.53
			c8.327,0.107,13.39,9.375,11.967,17.22c-1.738,9.582-6.899,15.353-10.81,21.293c-4.421,6.151-10.372,15.04-12.289,19.316
			c0,0-6.05-9.205-13.918-20.029c-5.263-7.238-9.474-15.082-9.864-21.835C2238.538-62.781,2241.705-69.698,2250.472-70.894
			L2250.472-70.894z"/>
		<path id="path8592" inkscape:connector-curvature="0" sodipodi:nodetypes="ccccsccssc" fill="#D40000" d="M2250.472,85.198
			c7.146,0.475,10.868-5.628,11.597-10.438c0.434-0.766,0.671-0.549,0.837,0.042c0.351,6.175,5.875,11.221,10.992,10.529
			c8.327-0.106,13.39-9.376,11.967-17.219c-1.738-9.582-6.899-15.353-10.81-21.293c-4.421-6.151-10.372-15.04-12.289-19.316
			c0,0-6.05,9.204-13.918,20.029c-5.263,7.238-9.474,15.082-9.864,21.835C2238.538,77.087,2241.705,84.003,2250.472,85.198
			L2250.472,85.198z"/>
		<path id="path8594" inkscape:connector-curvature="0" sodipodi:nodetypes="ccccsccssc" fill="#D40000" d="M2362.006,85.198
			c7.145,0.475,10.867-5.628,11.596-10.438c0.435-0.766,0.672-0.549,0.838,0.042c0.351,6.175,5.875,11.221,10.99,10.529
			c8.328-0.106,13.393-9.376,11.969-17.219c-1.738-9.582-6.899-15.353-10.811-21.293c-4.42-6.151-10.373-15.04-12.289-19.316
			c0,0-6.05,9.204-13.918,20.029c-5.263,7.238-9.474,15.082-9.865,21.835C2350.068,77.087,2353.236,84.003,2362.006,85.198
			L2362.006,85.198z"/>
		<path id="path8658" inkscape:connector-curvature="0" sodipodi:nodetypes="cccccccc" fill="#D40000" d="M2404,52.081
			c-1.584,3.473-1.759,9.405,2.973,10.208c3.562,0.458,5.012-1.197,5.301-3.741c0.142-0.743,0.562-0.788,0.693,0.06
			c0.205,2.608,2.787,4.133,4.807,3.75c5.527-0.945,5.205-7.028,3.396-11.155c-2.729-5.479-5.601-8.938-8.242-14.452
			C2409.889,42.489,2406.418,47.153,2404,52.081L2404,52.081z"/>
	</g>
</g>
</svg>
