<?xml version="1.0" encoding="utf-8"?>
<!-- Generator: Adobe Illustrator 16.0.0, SVG Export Plug-In . SVG Version: 6.00 Build 0)  -->
<!DOCTYPE svg PUBLIC "-//W3C//DTD SVG 1.1//EN" "http://www.w3.org/Graphics/SVG/1.1/DTD/svg11.dtd">
<svg version="1.1"
	 id="svg4423" xmlns:dc="http://purl.org/dc/elements/1.1/" xmlns:cc="http://creativecommons.org/ns#" xmlns:rdf="http://www.w3.org/1999/02/22-rdf-syntax-ns#" xmlns:svg="http://www.w3.org/2000/svg" xmlns:sodipodi="http://sodipodi.sourceforge.net/DTD/sodipodi-0.dtd" xmlns:inkscape="http://www.inkscape.org/namespaces/inkscape" inkscape:version="0.48.1 r9760" sodipodi:docname="7H.svg"
	 xmlns="http://www.w3.org/2000/svg" xmlns:xlink="http://www.w3.org/1999/xlink" x="0px" y="0px" width="223.229px"
	 height="311.811px" viewBox="0 0 223.229 311.811" enable-background="new 0 0 223.229 311.811" xml:space="preserve">
<sodipodi:namedview  pagecolor="#ffffff" bordercolor="#666666" borderopacity="1.0" inkscape:zoom="0.69999999" inkscape:cx="133.5404" inkscape:cy="490.34926" showgrid="false" id="base" inkscape:document-units="px" inkscape:window-width="735" inkscape:window-height="925" inkscape:current-layer="layer1" inkscape:snap-global="true" inkscape:window-x="29" inkscape:snap-page="true" inkscape:snap-bbox="true" inkscape:window-y="29" inkscape:window-maximized="0" inkscape:pageopacity="0.0" inkscape:pageshadow="2">
	</sodipodi:namedview>
<g id="layer1" inkscape:label="7H" inkscape:groupmode="layer">
	<g id="g9031" transform="translate(-1090.3923,-113.66123)">
		<g id="g8838">
			<g id="g8853" transform="translate(-4683.8753,2918.9368)">
				<path id="rect6359" fill="#FFFFFF" stroke="#000000" stroke-width="0.99" stroke-miterlimit="3.8" d="M5784.898-2805.275
					h201.968c5.871,0,10.629,4.76,10.629,10.63v290.552c0,5.871-4.758,10.63-10.629,10.63h-201.968c-5.871,0-10.63-4.76-10.63-10.63
					v-290.552C5774.268-2800.518,5779.027-2805.275,5784.898-2805.275z"/>
				<g id="g8660" transform="matrix(0.30106207,0,0,0.30106207,5449.5822,-1980.8821)">
					<path id="path7110" inkscape:connector-curvature="0" sodipodi:nodetypes="cccccccccc" fill="#D40000" d="M1119.466-2583.795
						c7.081-36.836,14.642-64.476,34.478-94.493h-40.307v12.923h-10.714v-24.351h58.971l7.269,11.427
						c-21.065,22.577-40.349,95.557-36.933,94.493H1119.466z"/>
					<path id="path7126" inkscape:connector-curvature="0" sodipodi:nodetypes="cccccccccc" fill="#D40000" d="M1778.942-1857.071
						c-7.084,36.836-14.642,64.475-34.484,94.493h40.31v-12.923h10.717v24.351h-58.971l-7.272-11.428
						c21.065-22.576,40.352-95.557,36.933-94.493H1778.942L1778.942-1857.071z"/>
				</g>
			</g>
		</g>
		<path id="path8632" inkscape:connector-curvature="0" sodipodi:nodetypes="cccccccc" fill="#D40000" d="M1099.219,175.621
			c-1.583-3.474-1.756-9.405,2.972-10.208c3.562-0.458,5.013,1.197,5.301,3.741c0.142,0.741,0.562,0.788,0.692-0.06
			c0.205-2.608,2.788-4.133,4.809-3.75c5.524,0.945,5.203,7.028,3.396,11.155c-2.729,5.479-5.601,8.938-8.245,14.452
			C1105.107,185.213,1101.638,180.549,1099.219,175.621L1099.219,175.621z"/>
		<path id="path8538" inkscape:connector-curvature="0" sodipodi:nodetypes="ccccsccssc" fill="#D40000" d="M1133.579,143.469
			c7.145-0.475,10.867,5.628,11.596,10.437c0.434,0.766,0.67,0.55,0.836-0.042c0.351-6.174,5.875-11.22,10.993-10.529
			c8.328,0.107,13.391,9.376,11.966,17.219c-1.737,9.582-6.898,15.353-10.809,21.293c-4.421,6.152-10.371,15.04-12.289,19.317
			c0,0-6.049-9.205-13.918-20.03c-5.262-7.238-9.473-15.082-9.864-21.835C1121.641,151.58,1124.809,144.664,1133.579,143.469
			L1133.579,143.469z"/>
		<path id="path8540" inkscape:connector-curvature="0" sodipodi:nodetypes="ccccsccssc" fill="#D40000" d="M1245.111,143.469
			c7.145-0.475,10.869,5.628,11.596,10.437c0.434,0.766,0.67,0.55,0.836-0.042c0.35-6.174,5.875-11.22,10.992-10.529
			c8.328,0.107,13.391,9.376,11.967,17.219c-1.738,9.582-6.897,15.353-10.807,21.293c-4.422,6.152-10.373,15.04-12.291,19.317
			c0,0-6.049-9.205-13.918-20.03c-5.263-7.238-9.474-15.082-9.863-21.835C1233.174,151.58,1236.342,144.664,1245.111,143.469
			L1245.111,143.469z"/>
		<path id="path8542" inkscape:connector-curvature="0" sodipodi:nodetypes="ccccsccssc" fill="#D40000" d="M1190.012,193.592
			c7.146-0.475,10.869,5.628,11.597,10.438c0.435,0.766,0.67,0.55,0.837-0.042c0.348-6.175,5.875-11.221,10.993-10.529
			c8.327,0.106,13.391,9.376,11.967,17.219c-1.738,9.582-6.898,15.353-10.81,21.293c-4.422,6.152-10.373,15.04-12.291,19.317
			c0,0-6.048-9.205-13.917-20.029c-5.262-7.239-9.473-15.083-9.864-21.836C1178.075,201.704,1181.243,194.788,1190.012,193.592
			L1190.012,193.592z"/>
		<path id="path8544" inkscape:connector-curvature="0" sodipodi:nodetypes="ccccsccssc" fill="#D40000" d="M1133.579,243.717
			c7.145-0.476,10.867,5.627,11.596,10.438c0.434,0.765,0.67,0.549,0.836-0.043c0.351-6.175,5.875-11.221,10.993-10.529
			c8.328,0.106,13.391,9.376,11.966,17.219c-1.737,9.582-6.898,15.353-10.809,21.294c-4.421,6.152-10.371,15.039-12.289,19.316
			c0,0-6.049-9.204-13.918-20.029c-5.262-7.239-9.473-15.083-9.864-21.836C1121.641,251.829,1124.809,244.912,1133.579,243.717
			L1133.579,243.717z"/>
		<path id="path8546" inkscape:connector-curvature="0" sodipodi:nodetypes="ccccsccssc" fill="#D40000" d="M1245.111,243.717
			c7.145-0.476,10.869,5.627,11.596,10.438c0.434,0.765,0.67,0.549,0.836-0.043c0.35-6.175,5.875-11.221,10.992-10.529
			c8.328,0.106,13.391,9.376,11.967,17.219c-1.738,9.582-6.897,15.353-10.807,21.294c-4.422,6.152-10.373,15.039-12.291,19.316
			c0,0-6.049-9.204-13.918-20.029c-5.263-7.239-9.474-15.083-9.863-21.836C1233.174,251.829,1236.342,244.912,1245.111,243.717
			L1245.111,243.717z"/>
		<path id="path8666" inkscape:connector-curvature="0" sodipodi:nodetypes="cccccccc" fill="#D40000" d="M1288.035,366.479
			c-1.584,3.474-1.758,9.404,2.971,10.207c3.563,0.459,5.012-1.197,5.299-3.741c0.144-0.741,0.563-0.788,0.695,0.06
			c0.205,2.608,2.787,4.133,4.807,3.75c5.527-0.945,5.203-7.028,3.398-11.155c-2.73-5.479-5.601-8.938-8.244-14.451
			C1293.922,356.887,1290.453,361.551,1288.035,366.479L1288.035,366.479z"/>
		<path id="path8620" inkscape:connector-curvature="0" sodipodi:nodetypes="ccccsccssc" fill="#D40000" d="M1245.111,399.808
			c7.145,0.477,10.869-5.628,11.596-10.437c0.434-0.765,0.67-0.55,0.836,0.042c0.35,6.175,5.875,11.221,10.992,10.529
			c8.328-0.107,13.391-9.375,11.967-17.22c-1.738-9.581-6.897-15.351-10.807-21.293c-4.422-6.151-10.373-15.039-12.291-19.315
			c0,0-6.049,9.204-13.918,20.029c-5.263,7.237-9.474,15.081-9.863,21.835C1233.174,391.697,1236.342,398.613,1245.111,399.808
			L1245.111,399.808z"/>
		<path id="path8622" inkscape:connector-curvature="0" sodipodi:nodetypes="ccccsccssc" fill="#D40000" d="M1133.579,399.808
			c7.145,0.477,10.867-5.628,11.596-10.437c0.434-0.765,0.67-0.55,0.836,0.042c0.351,6.175,5.875,11.221,10.993,10.529
			c8.328-0.107,13.391-9.375,11.966-17.22c-1.737-9.581-6.898-15.351-10.809-21.293c-4.421-6.151-10.371-15.039-12.289-19.315
			c0,0-6.049,9.204-13.918,20.029c-5.262,7.237-9.473,15.081-9.864,21.835C1121.641,391.697,1124.809,398.613,1133.579,399.808
			L1133.579,399.808z"/>
	</g>
</g>
</svg>
