<?xml version="1.0" encoding="utf-8"?>
<!-- Generator: Adobe Illustrator 16.0.0, SVG Export Plug-In . SVG Version: 6.00 Build 0)  -->
<!DOCTYPE svg PUBLIC "-//W3C//DTD SVG 1.1//EN" "http://www.w3.org/Graphics/SVG/1.1/DTD/svg11.dtd">
<svg version="1.1"
	 id="svg4423" xmlns:dc="http://purl.org/dc/elements/1.1/" xmlns:cc="http://creativecommons.org/ns#" xmlns:rdf="http://www.w3.org/1999/02/22-rdf-syntax-ns#" xmlns:svg="http://www.w3.org/2000/svg" xmlns:sodipodi="http://sodipodi.sourceforge.net/DTD/sodipodi-0.dtd" xmlns:inkscape="http://www.inkscape.org/namespaces/inkscape" inkscape:version="0.48.1 r9760" sodipodi:docname="8H.svg"
	 xmlns="http://www.w3.org/2000/svg" xmlns:xlink="http://www.w3.org/1999/xlink" x="0px" y="0px" width="223.229px"
	 height="311.811px" viewBox="0 0 223.229 311.811" enable-background="new 0 0 223.229 311.811" xml:space="preserve">
<sodipodi:namedview  pagecolor="#ffffff" bordercolor="#666666" borderopacity="1.0" inkscape:zoom="0.98994948" inkscape:cx="187.31121" inkscape:cy="375.39925" showgrid="false" id="base" inkscape:document-units="px" inkscape:window-width="735" inkscape:window-height="925" inkscape:current-layer="layer1" inkscape:snap-global="true" inkscape:window-x="803" inkscape:snap-page="true" inkscape:snap-bbox="true" inkscape:window-y="66" inkscape:window-maximized="0" inkscape:pageopacity="0.0" inkscape:pageshadow="2">
	</sodipodi:namedview>
<g id="layer1" inkscape:label="8H" inkscape:groupmode="layer">
	<g id="g9013" transform="translate(-1313.6208,-113.66123)">
		<g id="g8854">
			<g id="g8836" transform="translate(-4683.8753,2918.9368)">
				<path id="rect6361" fill="#FFFFFF" stroke="#000000" stroke-width="0.9967" d="M6008.126-2805.275h201.968
					c5.871,0,10.629,4.76,10.629,10.63v290.552c0,5.871-4.758,10.63-10.629,10.63h-201.968c-5.871,0-10.63-4.76-10.63-10.63
					v-290.552C5997.498-2800.518,6002.255-2805.275,6008.126-2805.275z"/>
				<g id="g8646" transform="matrix(0.30106207,0,0,0.30106207,5370.0941,-1979.9322)">
					<path id="path7112" inkscape:connector-curvature="0" sodipodi:nodetypes="zcszsczzzssssssssss" fill="#D40000" d="
						M2106.695-2616.715c0.532-14.532,5.884-19.991,16.423-27.601c-8.408-5.962-11.95-14.733-11.236-22.21
						c1.732-18.097,15.979-27.15,31.506-26.751c15.528,0.396,28.915,12.498,29.956,25.645c0.908,11.438-2.559,16.945-10.818,22.972
						c9.809,8.109,16.076,13.452,15.839,27.766c-0.237,14.318-12.644,31.357-34.26,31.876
						c-21.623,0.522-37.938-17.169-37.407-31.704h-0.003V-2616.715L2106.695-2616.715z M2167.058-2616.667
						c0.928-13.16-10.925-22.038-24.292-22.177c-13.03-0.133-24.685,10.785-24.685,22.599c0,12.692,15.158,19.585,24.948,19.625
						C2154.926-2596.578,2166.256-2605.33,2167.058-2616.667L2167.058-2616.667z M2162.779-2663.743
						c0.259-11.087-10.153-19.031-20.886-18.713c-9.553,0.285-19.667,7.444-19.673,16.711c-0.01,11.593,11.502,17.38,21.314,17.597
						C2152.438-2647.949,2162.581-2655.371,2162.779-2663.743z"/>
					<path id="path7128" inkscape:connector-curvature="0" sodipodi:nodetypes="zcszsczzzssssssssss" fill="#D40000" d="
						M2802.698-1830.462c-0.532,14.532-5.878,19.988-16.42,27.598c8.408,5.965,11.95,14.736,11.236,22.213
						c-1.732,18.094-15.979,27.144-31.503,26.751c-15.531-0.396-28.915-12.501-29.959-25.648
						c-0.908-11.437,2.563-16.948,10.821-22.972c-9.809-8.109-16.076-13.452-15.842-27.766c0.24-14.318,12.644-31.357,34.26-31.879
						C2786.914-1862.688,2803.23-1844.997,2802.698-1830.462L2802.698-1830.462z M2742.339-1830.511
						c-0.928,13.16,10.925,22.038,24.295,22.177c13.027,0.133,24.678-10.785,24.685-22.599c0-12.693-15.161-19.585-24.951-19.625
						C2754.47-1850.599,2743.137-1841.847,2742.339-1830.511L2742.339-1830.511z M2746.621-1783.434
						c-0.26,11.087,10.153,19.031,20.883,18.713c9.556-0.285,19.67-7.444,19.677-16.712c0.006-11.593-11.502-17.38-21.318-17.597
						C2756.961-1799.228,2746.815-1791.806,2746.621-1783.434z"/>
				</g>
			</g>
		</g>
		<path id="path8634" inkscape:connector-curvature="0" sodipodi:nodetypes="cccccccc" fill="#D40000" d="M1323.202,176.572
			c-1.583-3.474-1.756-9.405,2.971-10.208c3.562-0.459,5.012,1.197,5.3,3.74c0.144,0.743,0.563,0.789,0.694-0.058
			c0.205-2.608,2.788-4.133,4.807-3.75c5.526,0.944,5.204,7.027,3.398,11.155c-2.731,5.479-5.603,8.938-8.245,14.451
			C1329.088,186.163,1325.621,181.499,1323.202,176.572L1323.202,176.572z"/>
		<path id="path8548" inkscape:connector-curvature="0" sodipodi:nodetypes="ccccsccssc" fill="#D40000" d="M1358.179,141.298
			c7.146-0.476,10.869,5.628,11.597,10.438c0.435,0.765,0.67,0.55,0.837-0.042c0.35-6.175,5.875-11.221,10.992-10.529
			c8.327,0.107,13.39,9.375,11.967,17.219c-1.738,9.581-6.898,15.352-10.809,21.293c-4.422,6.152-10.373,15.039-12.291,19.315
			c0,0-6.048-9.203-13.917-20.028c-5.262-7.238-9.473-15.082-9.864-21.835C1346.244,149.41,1349.411,142.494,1358.179,141.298
			L1358.179,141.298z"/>
		<path id="path8550" inkscape:connector-curvature="0" sodipodi:nodetypes="ccccsccssc" fill="#D40000" d="M1467.712,141.298
			c7.146-0.476,10.869,5.628,11.596,10.438c0.435,0.765,0.671,0.55,0.837-0.042c0.35-6.175,5.875-11.221,10.993-10.529
			c8.326,0.107,13.39,9.375,11.966,17.219c-1.738,9.581-6.898,15.352-10.808,21.293c-4.422,6.152-10.373,15.039-12.291,19.315
			c0,0-6.049-9.203-13.916-20.028c-5.262-7.238-9.477-15.082-9.865-21.835C1455.774,149.41,1458.942,142.494,1467.712,141.298
			L1467.712,141.298z"/>
		<path id="path8552" inkscape:connector-curvature="0" sodipodi:nodetypes="ccccsccssc" fill="#D40000" d="M1412.363,191.422
			c7.145-0.476,10.868,5.628,11.596,10.438c0.434,0.765,0.671,0.549,0.837-0.042c0.351-6.176,5.875-11.222,10.994-10.529
			c8.326,0.106,13.389,9.375,11.965,17.219c-1.738,9.581-6.897,15.352-10.807,21.293c-4.422,6.151-10.373,15.039-12.292,19.315
			c0,0-6.049-9.203-13.917-20.028c-5.262-7.238-9.475-15.082-9.864-21.835C1400.425,199.533,1403.593,192.617,1412.363,191.422
			L1412.363,191.422z"/>
		<path id="path8554" inkscape:connector-curvature="0" sodipodi:nodetypes="ccccsccssc" fill="#D40000" d="M1358.179,241.546
			c7.146-0.475,10.869,5.628,11.597,10.438c0.435,0.765,0.67,0.549,0.837-0.042c0.35-6.175,5.875-11.221,10.992-10.529
			c8.327,0.106,13.39,9.375,11.967,17.219c-1.738,9.582-6.898,15.353-10.809,21.293c-4.422,6.152-10.373,15.04-12.291,19.316
			c0,0-6.048-9.204-13.917-20.029c-5.262-7.238-9.473-15.082-9.864-21.835C1346.244,249.657,1349.411,242.741,1358.179,241.546
			L1358.179,241.546z"/>
		<path id="path8556" inkscape:connector-curvature="0" sodipodi:nodetypes="ccccsccssc" fill="#D40000" d="M1467.712,241.546
			c7.146-0.475,10.869,5.628,11.596,10.438c0.435,0.765,0.671,0.549,0.837-0.042c0.35-6.175,5.875-11.221,10.993-10.529
			c8.326,0.106,13.39,9.375,11.966,17.219c-1.738,9.582-6.898,15.353-10.808,21.293c-4.422,6.152-10.373,15.04-12.291,19.316
			c0,0-6.049-9.204-13.916-20.029c-5.262-7.238-9.477-15.082-9.865-21.835C1455.774,249.657,1458.942,242.741,1467.712,241.546
			L1467.712,241.546z"/>
		<path id="path8614" inkscape:connector-curvature="0" sodipodi:nodetypes="ccccsccssc" fill="#D40000" d="M1467.712,397.638
			c7.146,0.475,10.869-5.628,11.596-10.438c0.435-0.766,0.671-0.549,0.837,0.042c0.35,6.175,5.875,11.221,10.993,10.53
			c8.326-0.107,13.39-9.376,11.966-17.22c-1.738-9.582-6.898-15.353-10.808-21.293c-4.422-6.151-10.373-15.04-12.291-19.316
			c0,0-6.049,9.205-13.916,20.028c-5.262,7.239-9.477,15.083-9.865,21.836C1455.774,389.527,1458.942,396.443,1467.712,397.638
			L1467.712,397.638z"/>
		<path id="path8616" inkscape:connector-curvature="0" sodipodi:nodetypes="ccccsccssc" fill="#D40000" d="M1412.363,348.339
			c7.145,0.476,10.868-5.627,11.596-10.438c0.434-0.765,0.671-0.55,0.837,0.042c0.351,6.175,5.875,11.222,10.994,10.529
			c8.326-0.107,13.389-9.375,11.965-17.219c-1.738-9.581-6.897-15.352-10.807-21.293c-4.422-6.151-10.373-15.039-12.292-19.315
			c0,0-6.049,9.203-13.917,20.028c-5.262,7.238-9.475,15.082-9.864,21.835C1400.425,340.226,1403.593,347.142,1412.363,348.339
			L1412.363,348.339z"/>
		<path id="path8618" inkscape:connector-curvature="0" sodipodi:nodetypes="ccccsccssc" fill="#D40000" d="M1358.179,397.638
			c7.146,0.475,10.869-5.628,11.597-10.438c0.435-0.766,0.67-0.549,0.837,0.042c0.35,6.175,5.875,11.221,10.992,10.53
			c8.327-0.107,13.39-9.376,11.967-17.22c-1.738-9.582-6.898-15.353-10.809-21.293c-4.422-6.151-10.373-15.04-12.291-19.316
			c0,0-6.048,9.205-13.917,20.028c-5.262,7.239-9.473,15.083-9.864,21.836C1346.244,389.527,1349.411,396.443,1358.179,397.638
			L1358.179,397.638z"/>
		<path id="path8664" inkscape:connector-curvature="0" sodipodi:nodetypes="cccccccc" fill="#D40000" d="M1512.017,367.428
			c-1.584,3.473-1.758,9.405,2.972,10.208c3.562,0.458,5.012-1.198,5.301-3.742c0.141-0.742,0.561-0.788,0.693,0.061
			c0.204,2.608,2.786,4.133,4.807,3.75c5.527-0.945,5.205-7.028,3.397-11.155c-2.729-5.479-5.6-8.938-8.243-14.452
			C1517.903,357.837,1514.436,362.501,1512.017,367.428L1512.017,367.428z"/>
	</g>
</g>
</svg>
