<?xml version="1.0" encoding="utf-8"?>
<!-- Generator: Adobe Illustrator 16.0.0, SVG Export Plug-In . SVG Version: 6.00 Build 0)  -->
<!DOCTYPE svg PUBLIC "-//W3C//DTD SVG 1.1//EN" "http://www.w3.org/Graphics/SVG/1.1/DTD/svg11.dtd">
<svg version="1.1"
	 id="svg4423" xmlns:dc="http://purl.org/dc/elements/1.1/" xmlns:cc="http://creativecommons.org/ns#" xmlns:rdf="http://www.w3.org/1999/02/22-rdf-syntax-ns#" xmlns:svg="http://www.w3.org/2000/svg" xmlns:sodipodi="http://sodipodi.sourceforge.net/DTD/sodipodi-0.dtd" xmlns:inkscape="http://www.inkscape.org/namespaces/inkscape" inkscape:version="0.48.1 r9760" sodipodi:docname="9H.svg"
	 xmlns="http://www.w3.org/2000/svg" xmlns:xlink="http://www.w3.org/1999/xlink" x="0px" y="0px" width="223.229px"
	 height="311.811px" viewBox="0 0 223.229 311.811" enable-background="new 0 0 223.229 311.811" xml:space="preserve">
<sodipodi:namedview  pagecolor="#ffffff" bordercolor="#666666" borderopacity="1.0" inkscape:zoom="0.98994948" inkscape:cx="195.21402" inkscape:cy="512.40065" showgrid="false" id="base" inkscape:document-units="px" inkscape:window-width="735" inkscape:window-height="925" inkscape:current-layer="layer1" inkscape:snap-global="true" inkscape:window-x="976" inkscape:snap-page="true" inkscape:snap-bbox="true" inkscape:window-y="63" inkscape:window-maximized="0" inkscape:pageopacity="0.0" inkscape:pageshadow="2">
	</sodipodi:namedview>
<g id="layer1" inkscape:label="9H" inkscape:groupmode="layer">
	<g id="g8993" transform="translate(-1536.8493,-113.66123)">
		<g id="g8871">
			<g id="g8817" transform="translate(-4683.8753,2918.9368)">
				<path id="rect6363" fill="#FFFFFF" stroke="#000000" stroke-width="0.9967" d="M6231.354-2805.275h201.97
					c5.871,0,10.629,4.76,10.629,10.63v290.552c0,5.871-4.758,10.63-10.629,10.63h-201.969c-5.871,0-10.63-4.76-10.63-10.63
					v-290.552C6220.725-2800.518,6225.483-2805.275,6231.354-2805.275z"/>
				<g id="g8631" transform="matrix(0.30106207,0,0,0.30106207,5727.1309,-1950.5247)">
					<g id="g8685" transform="translate(-1267.7708,-112.90889)">
						<path id="path7114" inkscape:connector-curvature="0" sodipodi:nodetypes="ccsccccscccsssssss" fill="#D40000" d="
							M2934.768-2595.504l10.052-3.13c3.792,9.952,11.46,12.884,19.569,12.255c14.558-1.132,19.388-17.101,20.481-31.221
							c-5.67,5.891-14.198,8.888-21.457,8.596c-23.193-1.229-29.129-19.446-29.343-38.535c-0.646-16.099,6.134-27.753,17.766-33.096
							c6.15-2.712,20.241-2.712,26.437,0.493c14.224,7.363,19.488,20.092,18.531,50.459c0.016,24.99-5.394,54.099-32.674,54.722
							C2948.359-2572.821,2936.383-2584.858,2934.768-2595.504L2934.768-2595.504z M2974.254-2622.887
							c4.733-2.939,7.406-5.699,9.524-9.838c1.742-3.396,2.332-5.157,1.836-12.19c-1.281-18.123-10.961-28.392-24.993-26.352
							c-7.827,1.139-12.103,5.443-14.558,13.445c-4.535,14.779,1.213,32.077,11.986,36.061
							C2962.907-2619.965,2970.387-2620.484,2974.254-2622.887z"/>
						<path id="path7130" inkscape:connector-curvature="0" sodipodi:nodetypes="ccsccccscccsssssss" fill="#D40000" d="
							M3619.133-1821.214l-10.055,3.13c-3.789-9.955-11.457-12.884-19.566-12.258c-14.558,1.132-19.384,17.104-20.481,31.224
							c5.677-5.897,14.201-8.891,21.46-8.599c23.193,1.226,29.129,19.446,29.343,38.532c0.642,16.102-6.137,27.753-17.763,33.099
							c-6.156,2.712-20.247,2.712-26.443-0.493c-14.22-7.36-19.482-20.095-18.528-50.456c-0.02-24.993,5.397-54.102,32.677-54.725
							C3605.542-1843.897,3617.517-1831.86,3619.133-1821.214L3619.133-1821.214z M3579.65-1793.83
							c-4.736,2.939-7.402,5.699-9.523,9.838c-1.745,3.396-2.335,5.157-1.836,12.19c1.278,18.123,10.957,28.392,24.99,26.352
							c7.83-1.139,12.106-5.443,14.558-13.445c4.541-14.778-1.213-32.077-11.982-36.061
							C3590.997-1796.753,3583.517-1796.234,3579.65-1793.83L3579.65-1793.83z"/>
					</g>
				</g>
			</g>
		</g>
		<path id="path8636" inkscape:connector-curvature="0" sodipodi:nodetypes="cccccccc" fill="#D40000" d="M1545.433,171.986
			c-1.583-3.473-1.758-9.403,2.972-10.207c3.562-0.459,5.012,1.198,5.3,3.741c0.143,0.742,0.562,0.788,0.694-0.06
			c0.204-2.607,2.787-4.132,4.808-3.749c5.525,0.944,5.204,7.027,3.397,11.154c-2.73,5.479-5.602,8.938-8.245,14.451
			C1551.32,181.578,1547.851,176.914,1545.433,171.986L1545.433,171.986z"/>
		<path id="path8558" inkscape:connector-curvature="0" sodipodi:nodetypes="ccccsccssc" fill="#D40000" d="M1581.701,142.337
			c7.145-0.476,10.868,5.627,11.595,10.437c0.435,0.766,0.671,0.549,0.837-0.042c0.351-6.174,5.875-11.221,10.993-10.529
			c8.328,0.107,13.39,9.376,11.966,17.219c-1.737,9.582-6.898,15.352-10.808,21.293c-4.422,6.151-10.373,15.04-12.29,19.316
			c0,0-6.048-9.205-13.917-20.029c-5.263-7.238-9.474-15.082-9.865-21.835C1569.763,150.448,1572.931,143.531,1581.701,142.337
			L1581.701,142.337z"/>
		<path id="path8560" inkscape:connector-curvature="0" sodipodi:nodetypes="ccccsccssc" fill="#D40000" d="M1691.232,142.337
			c7.146-0.476,10.869,5.627,11.597,10.437c0.435,0.766,0.67,0.549,0.838-0.042c0.349-6.174,5.875-11.221,10.992-10.529
			c8.327,0.107,13.389,9.376,11.967,17.219c-1.739,9.582-6.899,15.352-10.81,21.293c-4.422,6.151-10.373,15.04-12.288,19.316
			c0,0-6.05-9.205-13.918-20.029c-5.263-7.238-9.474-15.082-9.865-21.835C1679.296,150.448,1682.462,143.531,1691.232,142.337
			L1691.232,142.337z"/>
		<path id="path8562" inkscape:connector-curvature="0" sodipodi:nodetypes="ccccsccssc" fill="#D40000" d="M1691.232,207.667
			c7.146-0.476,10.869,5.627,11.597,10.437c0.435,0.766,0.67,0.55,0.838-0.043c0.349-6.174,5.875-11.22,10.992-10.528
			c8.327,0.106,13.389,9.375,11.967,17.22c-1.739,9.581-6.899,15.351-10.81,21.293c-4.422,6.151-10.373,15.039-12.288,19.315
			c0,0-6.05-9.204-13.918-20.028c-5.263-7.238-9.474-15.082-9.865-21.836C1679.296,215.78,1682.462,208.864,1691.232,207.667
			L1691.232,207.667z"/>
		<path id="path8564" inkscape:connector-curvature="0" sodipodi:nodetypes="ccccsccssc" fill="#D40000" d="M1636.414,240.82
			c7.145-0.475,10.868,5.628,11.595,10.438c0.435,0.764,0.671,0.549,0.837-0.042c0.352-6.174,5.875-11.22,10.993-10.53
			c8.328,0.108,13.39,9.375,11.968,17.22c-1.738,9.582-6.899,15.353-10.81,21.293c-4.422,6.151-10.373,15.04-12.29,19.316
			c0,0-6.049-9.205-13.917-20.03c-5.262-7.236-9.475-15.081-9.865-21.835C1624.477,248.932,1627.644,242.016,1636.414,240.82
			L1636.414,240.82z"/>
		<path id="path8566" inkscape:connector-curvature="0" sodipodi:nodetypes="ccccsccssc" fill="#D40000" d="M1581.701,207.667
			c7.145-0.476,10.868,5.627,11.595,10.437c0.435,0.766,0.671,0.55,0.837-0.043c0.351-6.174,5.875-11.22,10.993-10.528
			c8.328,0.106,13.39,9.375,11.966,17.22c-1.737,9.581-6.898,15.351-10.808,21.293c-4.422,6.151-10.373,15.039-12.29,19.315
			c0,0-6.048-9.204-13.917-20.028c-5.263-7.238-9.474-15.082-9.865-21.836C1569.763,215.78,1572.931,208.864,1581.701,207.667
			L1581.701,207.667z"/>
		<path id="path8606" inkscape:connector-curvature="0" sodipodi:nodetypes="ccccsccssc" fill="#D40000" d="M1691.232,332.057
			c7.146,0.476,10.869-5.627,11.597-10.436c0.435-0.766,0.67-0.55,0.838,0.042c0.349,6.174,5.875,11.22,10.992,10.529
			c8.327-0.107,13.389-9.376,11.967-17.22c-1.739-9.581-6.899-15.352-10.81-21.293c-4.422-6.151-10.373-15.04-12.288-19.316
			c0,0-6.05,9.205-13.918,20.03c-5.263,7.237-9.474,15.081-9.865,21.835C1679.296,323.946,1682.462,330.862,1691.232,332.057
			L1691.232,332.057z"/>
		<path id="path8608" inkscape:connector-curvature="0" sodipodi:nodetypes="ccccsccssc" fill="#D40000" d="M1691.232,397.162
			c7.146,0.475,10.869-5.628,11.597-10.438c0.435-0.765,0.67-0.549,0.838,0.042c0.349,6.175,5.875,11.221,10.992,10.53
			c8.327-0.107,13.389-9.376,11.967-17.219c-1.739-9.582-6.899-15.354-10.81-21.294c-4.422-6.151-10.373-15.039-12.288-19.316
			c0,0-6.05,9.205-13.918,20.029c-5.263,7.238-9.474,15.083-9.865,21.836C1679.296,389.051,1682.462,395.967,1691.232,397.162
			L1691.232,397.162z"/>
		<path id="path8610" inkscape:connector-curvature="0" sodipodi:nodetypes="ccccsccssc" fill="#D40000" d="M1581.701,397.162
			c7.145,0.475,10.868-5.628,11.595-10.438c0.435-0.765,0.671-0.549,0.837,0.042c0.351,6.175,5.875,11.221,10.993,10.53
			c8.328-0.107,13.39-9.376,11.966-17.219c-1.737-9.582-6.898-15.354-10.808-21.294c-4.422-6.151-10.373-15.039-12.29-19.316
			c0,0-6.048,9.205-13.917,20.029c-5.263,7.238-9.474,15.083-9.865,21.836C1569.763,389.051,1572.931,395.967,1581.701,397.162
			L1581.701,397.162z"/>
		<path id="path8612" inkscape:connector-curvature="0" sodipodi:nodetypes="ccccsccssc" fill="#D40000" d="M1581.701,332.057
			c7.145,0.476,10.868-5.627,11.595-10.436c0.435-0.766,0.671-0.55,0.837,0.042c0.351,6.174,5.875,11.22,10.993,10.529
			c8.328-0.107,13.39-9.376,11.966-17.22c-1.737-9.581-6.898-15.352-10.808-21.293c-4.422-6.151-10.373-15.04-12.29-19.316
			c0,0-6.048,9.205-13.917,20.03c-5.263,7.237-9.474,15.081-9.865,21.835C1569.763,323.946,1572.931,330.862,1581.701,332.057
			L1581.701,332.057z"/>
		<path id="path8662" inkscape:connector-curvature="0" sodipodi:nodetypes="cccccccc" fill="#D40000" d="M1734.249,362.844
			c-1.584,3.473-1.758,9.405,2.971,10.208c3.563,0.458,5.013-1.198,5.3-3.742c0.143-0.742,0.562-0.788,0.694,0.061
			c0.205,2.608,2.787,4.132,4.808,3.75c5.526-0.945,5.202-7.028,3.397-11.156c-2.729-5.479-5.601-8.938-8.244-14.451
			C1740.134,353.252,1736.667,357.916,1734.249,362.844L1734.249,362.844z"/>
	</g>
</g>
</svg>
